<?xml version="1.0" encoding="UTF-8" standalone="no"?>
<!-- Created with Inkscape (http://www.inkscape.org/) -->

<svg
   xmlns:dc="http://purl.org/dc/elements/1.1/"
   xmlns:cc="http://creativecommons.org/ns#"
   xmlns:rdf="http://www.w3.org/1999/02/22-rdf-syntax-ns#"
   xmlns:svg="http://www.w3.org/2000/svg"
   xmlns="http://www.w3.org/2000/svg"
   xmlns:inkscape="http://www.inkscape.org/namespaces/inkscape"
   version="1.1"
   width="1920"
   height="1080"
   id="svg3627">
  <defs
     id="defs3629" />
  <metadata
     id="metadata3632">
    <rdf:RDF>
      <cc:Work
         rdf:about="">
        <dc:format>image/svg+xml</dc:format>
        <dc:type
           rdf:resource="http://purl.org/dc/dcmitype/StillImage" />
        <dc:title />
      </cc:Work>
    </rdf:RDF>
  </metadata>
  <g
     id="layer1">
    <g
       transform="translate(9825.5518,700.01013)"
       id="g3635"
       style="display:inline">
      <rect
         width="1920"
         height="1080"
         ry="0"
         x="-9825.5518"
         y="-700.01013"
         id="rect4667"
         style="fill:#333333;fill-opacity:1;fill-rule:nonzero;stroke:none" />
      <path
         d="m -9457.7198,-14.9308 a 15.310888,15.314317 0 0 0 -8.0182,2.054 l -51.7204,29.8566 a 15.310888,15.314317 0 0 0 -7.6603,13.261 l 0,59.7445 a 15.310888,15.314317 0 0 0 7.6603,13.2454 l 51.7204,29.88 a 15.310888,15.314317 0 0 0 15.3106,0 l 51.7284,-29.88 a 15.310888,15.314317 0 0 0 7.6523,-13.2454 l 0,-59.7445 a 15.310888,15.314317 0 0 0 -7.6523,-13.261 l -51.7284,-29.8566 a 15.310888,15.314317 0 0 0 -7.2924,-2.054 z m -0.164,33.7693 a 8.4209882,8.4228744 0 0 1 4.0131,1.1246 l 28.4527,16.424 a 8.4209882,8.4228744 0 0 1 4.209,7.2942 l 0,32.8634 a 8.4209882,8.4228744 0 0 1 -4.209,7.2787 l -28.4527,16.4395 a 8.4209882,8.4228744 0 0 1 -8.4171,0 l -28.4516,-16.4395 a 8.4209882,8.4228744 0 0 1 -4.2091,-7.2787 l 0,-32.8634 a 8.4209882,8.4228744 0 0 1 4.2091,-7.2942 l 28.4516,-16.424 a 8.4209882,8.4228744 0 0 1 4.404,-1.1246 z"
         inkscape:connector-curvature="0"
         id="path4643"
         style="font-size:medium;font-style:normal;font-variant:normal;font-weight:normal;font-stretch:normal;text-indent:0;text-align:start;text-decoration:none;line-height:normal;letter-spacing:normal;word-spacing:normal;text-transform:none;direction:ltr;block-progression:tb;writing-mode:lr-tb;text-anchor:start;baseline-shift:baseline;opacity:0.12000002;color:#000000;fill:#5ef7b7;fill-opacity:1;fill-rule:nonzero;stroke:none;stroke-width:116.01034546;marker:none;visibility:visible;display:inline;overflow:visible;enable-background:accumulate;font-family:Sans;-inkscape-font-specification:Sans" />
      <path
         d="m -9419.0824,-94.2463 a 15.310888,15.314317 0 0 0 -8.0182,2.0482 l -51.7265,29.8599 a 15.310888,15.314317 0 0 0 -7.6552,13.2646 l 0,59.7391 a 15.310888,15.314317 0 0 0 7.6552,13.2457 l 51.7265,29.8789 a 15.310888,15.314317 0 0 0 15.3095,0 l 51.7264,-29.8789 a 15.310888,15.314317 0 0 0 7.6543,-13.2457 l 0,-59.7391 a 15.310888,15.314317 0 0 0 -7.6543,-13.2646 l -51.7264,-29.8599 a 15.310888,15.314317 0 0 0 -7.2913,-2.0482 z"
         inkscape:connector-curvature="0"
         id="path4645"
         style="font-size:medium;font-style:normal;font-variant:normal;font-weight:normal;font-stretch:normal;text-indent:0;text-align:start;text-decoration:none;line-height:normal;letter-spacing:normal;word-spacing:normal;text-transform:none;direction:ltr;block-progression:tb;writing-mode:lr-tb;text-anchor:start;baseline-shift:baseline;opacity:0.18520005;color:#000000;fill:#5b79f9;fill-opacity:1;fill-rule:nonzero;stroke:none;stroke-width:116.01034546;marker:none;visibility:visible;display:inline;overflow:visible;enable-background:accumulate;font-family:Sans;-inkscape-font-specification:Sans" />
      <path
         d="m -9419.2464,-60.4775 a 8.4209882,8.4228744 0 0 0 -4.41,1.1265 l -28.4496,16.4229 a 8.4209882,8.4228744 0 0 0 -4.2101,7.2956 l 0,32.8564 a 8.4209882,8.4228744 0 0 0 4.2101,7.2851 l 28.4496,16.4335 a 8.4209882,8.4228744 0 0 0 8.4201,0 l 28.4496,-16.4335 a 8.4209882,8.4228744 0 0 0 4.2101,-7.2851 l 0,-32.8564 a 8.4209882,8.4228744 0 0 0 -4.2101,-7.2956 l -28.4496,-16.4229 a 8.4209882,8.4228744 0 0 0 -4.0101,-1.1265 z"
         inkscape:connector-curvature="0"
         id="path4647"
         style="font-size:medium;font-style:normal;font-variant:normal;font-weight:normal;font-stretch:normal;text-indent:0;text-align:start;text-decoration:none;line-height:normal;letter-spacing:normal;word-spacing:normal;text-transform:none;direction:ltr;block-progression:tb;writing-mode:lr-tb;text-anchor:start;baseline-shift:baseline;opacity:0.21919998;color:#000000;fill:#5ef7b7;fill-opacity:1;fill-rule:nonzero;stroke:none;stroke-width:116.01034546;marker:none;visibility:visible;display:inline;overflow:visible;enable-background:accumulate;font-family:Sans;-inkscape-font-specification:Sans" />
      <path
         d="m -9328.4188,76.5904 -29.2484,16.8847 a 8.4209882,8.4228744 0 0 1 1.1317,4.2094 l 0,32.8556 a 8.4209882,8.4228744 0 0 1 -4.209,7.2865 l -28.4436,16.4317 a 8.4209882,8.4228744 0 0 1 -4.1931,1.1168 l 0,33.7692 a 15.310888,15.314317 0 0 0 7.6363,-2.0384 l 51.7274,-29.8799 a 15.310888,15.314317 0 0 0 7.6523,-13.2453 l 0,-59.7367 a 15.310888,15.314317 0 0 0 -2.0536,-7.6536 z"
         inkscape:connector-curvature="0"
         id="path4649"
         style="opacity:0.20040008;fill:#5ef7b7;fill-opacity:1;stroke:none" />
      <path
         d="m -9582.0719,76.4078 29.2444,16.8934 a 8.4209882,8.4228744 0 0 1 3.0783,-3.0853 l 28.4477,-16.4278 a 8.4209882,8.4228744 0 0 1 8.4131,0 l 28.4496,16.4233 a 8.4209882,8.4228744 0 0 1 3.0633,3.0736 l 29.2385,-16.8847 a 15.310888,15.314317 0 0 0 -5.5838,-5.5954 l -51.7344,-29.8677 a 15.310888,15.314317 0 0 0 -15.2946,-0.01 l -51.7214,29.8683 a 15.310888,15.314317 0 0 0 -5.6007,5.6056 z"
         inkscape:connector-curvature="0"
         id="path4651"
         style="opacity:0.42080006;fill:#3cd6ff;fill-opacity:1;stroke:none" />
      <path
         d="m -9428.9522,100.68 -29.2485,16.8847 a 8.4209882,8.4228744 0 0 1 1.1318,4.2095 l 0,32.8555 a 8.4209882,8.4228744 0 0 1 -4.2081,7.2866 l -28.4446,16.4315 a 8.4209882,8.4228744 0 0 1 -4.1931,1.1168 l 0,33.7693 a 15.310888,15.314317 0 0 0 7.6363,-2.0383 l 11.5164,-6.6539 18.4509,10.7228 c 4.477,2.5999 11.6854,2.5999 16.1624,0 l 14.1168,-8.1925 c 4.477,-2.5999 4.477,-6.7874 0,-9.3873 l -18.3799,-10.6759 9.8618,-5.6933 a 15.310888,15.314317 0 0 0 7.6513,-13.2453 l 0,-59.7366 a 15.310888,15.314317 0 0 0 -2.0535,-7.6536 z"
         inkscape:connector-curvature="0"
         id="path4653"
         style="opacity:0.28719991;fill:#5b79f9;fill-opacity:1;stroke:none" />
      <rect
         width="35.010361"
         height="48.993454"
         ry="9.3448048"
         x="-5715.1582"
         y="-5233.4697"
         transform="matrix(0.86475286,-0.50219766,0.86475286,0.50219766,0,0)"
         id="rect4655"
         style="opacity:0.43999999;fill:#5b79f9;fill-opacity:1;stroke:none" />
      <rect
         width="35.010361"
         height="48.99345"
         ry="9.3448038"
         x="-5399.7476"
         y="-5408.688"
         transform="matrix(0.86475286,-0.50219766,0.86475286,0.50219766,0,0)"
         id="rect4657"
         style="opacity:0.9;fill:#5b79f9;fill-opacity:1;stroke:none" />
      <path
         d="m -9349.595,-136.7049 a 15.310888,15.314317 0 0 0 -8.0182,2.0539 l -51.7204,29.8567 a 15.310888,15.314317 0 0 0 -7.6603,13.2609 l 0,59.7446 a 15.310888,15.314317 0 0 0 7.6603,13.2453 l 51.7204,29.88 a 15.310888,15.314317 0 0 0 15.3106,0 l 51.7284,-29.88 a 15.310888,15.314317 0 0 0 7.6523,-13.2453 l 0,-59.7446 a 15.310888,15.314317 0 0 0 -7.6523,-13.2609 l -51.7284,-29.8567 a 15.310888,15.314317 0 0 0 -7.2924,-2.0539 z m -0.164,33.7693 a 8.4209878,8.422874 0 0 1 4.0131,1.1246 l 28.4527,16.4239 a 8.4209878,8.422874 0 0 1 4.208,7.2943 l 0,32.8634 a 8.4209878,8.422874 0 0 1 -4.208,7.2787 l -28.4527,16.4395 a 8.4209878,8.422874 0 0 1 -8.4171,0 l -28.4516,-16.4395 a 8.4209878,8.422874 0 0 1 -4.2091,-7.2787 l 0,-32.8634 a 8.4209878,8.422874 0 0 1 4.2091,-7.2943 l 28.4516,-16.4239 a 8.4209878,8.422874 0 0 1 4.404,-1.1246 z"
         inkscape:connector-curvature="0"
         id="path4659"
         style="font-size:medium;font-style:normal;font-variant:normal;font-weight:normal;font-stretch:normal;text-indent:0;text-align:start;text-decoration:none;line-height:normal;letter-spacing:normal;word-spacing:normal;text-transform:none;direction:ltr;block-progression:tb;writing-mode:lr-tb;text-anchor:start;baseline-shift:baseline;opacity:0.9;color:#000000;fill:#5b79f9;fill-opacity:1;fill-rule:nonzero;stroke:none;stroke-width:116.01034546;marker:none;visibility:visible;display:inline;overflow:visible;enable-background:accumulate;font-family:Sans;-inkscape-font-specification:Sans" />
      <path
         d="m -9507.5016,261.2627 0.01,-33.7781 a 8.4209882,8.4228744 0 0 1 -4.2111,-1.1241 l -28.4476,-16.4276 a 8.4209882,8.4228744 0 0 1 -4.2041,-7.2889 l -0.01,-32.8551 a 8.4209882,8.4228744 0 0 1 1.1298,-4.1903 l -29.2385,-16.8847 a 15.310888,15.314317 0 0 0 -2.0535,7.6339 l 0.01,59.7476 a 15.310888,15.314317 0 0 0 7.6423,13.2509 l 51.7224,29.8683 a 15.310888,15.314317 0 0 0 7.6533,2.048 z"
         inkscape:connector-curvature="0"
         id="path4661"
         style="opacity:0.12556057;fill:#3cd6ff;fill-opacity:1;stroke:none" />
    </g>
  </g>
</svg>
