<?xml version="1.0" encoding="UTF-8" standalone="no"?>
<!-- Created with Inkscape (http://www.inkscape.org/) -->

<svg
   xmlns:dc="http://purl.org/dc/elements/1.1/"
   xmlns:cc="http://creativecommons.org/ns#"
   xmlns:rdf="http://www.w3.org/1999/02/22-rdf-syntax-ns#"
   xmlns:svg="http://www.w3.org/2000/svg"
   xmlns="http://www.w3.org/2000/svg"
   xmlns:inkscape="http://www.inkscape.org/namespaces/inkscape"
   version="1.1"
   width="1920"
   height="1080"
   id="svg3627">
  <defs
     id="defs3629" />
  <metadata
     id="metadata3632">
    <rdf:RDF>
      <cc:Work
         rdf:about="">
        <dc:format>image/svg+xml</dc:format>
        <dc:type
           rdf:resource="http://purl.org/dc/dcmitype/StillImage" />
        <dc:title />
      </cc:Work>
    </rdf:RDF>
  </metadata>
  <g
     id="layer1">
    <g
       transform="translate(9825.3367,-3139.3699)"
       id="g3833"
       style="display:inline">
      <rect
         width="1920.4301"
         height="1080"
         ry="0"
         x="-9825.5518"
         y="3139.3699"
         id="rect5013"
         style="fill:#333333;fill-opacity:1;fill-rule:nonzero;stroke:none" />
      <path
         d="m -9457.6371,3824.4491 a 15.314317,15.314317 0 0 0 -8.021,2.0539 l -51.732,29.8567 a 15.314317,15.314317 0 0 0 -7.661,13.2609 l 0,59.7446 a 15.314317,15.314317 0 0 0 7.661,13.2453 l 51.732,29.88 a 15.314317,15.314317 0 0 0 15.315,0 l 51.739,-29.88 a 15.314317,15.314317 0 0 0 7.654,-13.2453 l 0,-59.7446 a 15.314317,15.314317 0 0 0 -7.654,-13.2609 l -51.739,-29.8567 a 15.314317,15.314317 0 0 0 -7.294,-2.0539 z m -0.164,33.7693 a 8.4228744,8.4228744 0 0 1 4.014,1.1246 l 28.459,16.4239 a 8.4228744,8.4228744 0 0 1 4.209,7.2943 l 0,32.8634 a 8.4228744,8.4228744 0 0 1 -4.209,7.2786 l -28.459,16.4396 a 8.4228744,8.4228744 0 0 1 -8.419,0 l -28.459,-16.4396 a 8.4228744,8.4228744 0 0 1 -4.209,-7.2786 l 0,-32.8634 a 8.4228744,8.4228744 0 0 1 4.209,-7.2943 l 28.459,-16.4239 a 8.4228744,8.4228744 0 0 1 4.405,-1.1246 z"
         inkscape:connector-curvature="0"
         id="path5015"
         style="font-size:medium;font-style:normal;font-variant:normal;font-weight:normal;font-stretch:normal;text-indent:0;text-align:start;text-decoration:none;line-height:normal;letter-spacing:normal;word-spacing:normal;text-transform:none;direction:ltr;block-progression:tb;writing-mode:lr-tb;text-anchor:start;baseline-shift:baseline;opacity:0.12000002;color:#000000;fill:#57a3ee;fill-opacity:1;fill-rule:nonzero;stroke:none;stroke-width:116.01034546;marker:none;visibility:visible;display:inline;overflow:visible;enable-background:accumulate;font-family:Sans;-inkscape-font-specification:Sans" />
      <path
         d="m -9418.9921,3745.1336 a 15.314317,15.314317 0 0 0 -8.02,2.0482 l -51.738,29.8599 a 15.314317,15.314317 0 0 0 -7.656,13.2646 l 0,59.739 a 15.314317,15.314317 0 0 0 7.656,13.2457 l 51.738,29.8789 a 15.314317,15.314317 0 0 0 15.313,0 l 51.738,-29.8789 a 15.314317,15.314317 0 0 0 7.657,-13.2457 l 0,-59.739 a 15.314317,15.314317 0 0 0 -7.657,-13.2646 l -51.738,-29.8599 a 15.314317,15.314317 0 0 0 -7.293,-2.0482 z"
         inkscape:connector-curvature="0"
         id="path5017"
         style="font-size:medium;font-style:normal;font-variant:normal;font-weight:normal;font-stretch:normal;text-indent:0;text-align:start;text-decoration:none;line-height:normal;letter-spacing:normal;word-spacing:normal;text-transform:none;direction:ltr;block-progression:tb;writing-mode:lr-tb;text-anchor:start;baseline-shift:baseline;opacity:0.18520005;color:#000000;fill:#4e947a;fill-opacity:1;fill-rule:nonzero;stroke:none;stroke-width:116.01034546;marker:none;visibility:visible;display:inline;overflow:visible;enable-background:accumulate;font-family:Sans;-inkscape-font-specification:Sans" />
      <path
         d="m -9419.1551,3778.9023 a 8.4228744,8.4228744 0 0 0 -4.411,1.1266 l -28.456,16.4229 a 8.4228744,8.4228744 0 0 0 -4.211,7.2955 l 0,32.8565 a 8.4228744,8.4228744 0 0 0 4.211,7.2851 l 28.456,16.4334 a 8.4228744,8.4228744 0 0 0 8.422,0 l 28.456,-16.4334 a 8.4228744,8.4228744 0 0 0 4.211,-7.2851 l 0,-32.8565 a 8.4228744,8.4228744 0 0 0 -4.211,-7.2955 l -28.456,-16.4229 a 8.4228744,8.4228744 0 0 0 -4.011,-1.1266 z"
         inkscape:connector-curvature="0"
         id="path5019"
         style="font-size:medium;font-style:normal;font-variant:normal;font-weight:normal;font-stretch:normal;text-indent:0;text-align:start;text-decoration:none;line-height:normal;letter-spacing:normal;word-spacing:normal;text-transform:none;direction:ltr;block-progression:tb;writing-mode:lr-tb;text-anchor:start;baseline-shift:baseline;opacity:0.21919998;color:#000000;fill:#57ee59;fill-opacity:1;fill-rule:nonzero;stroke:none;stroke-width:116.01034546;marker:none;visibility:visible;display:inline;overflow:visible;enable-background:accumulate;font-family:Sans;-inkscape-font-specification:Sans" />
      <path
         d="m -9328.3081,3915.9703 -29.255,16.8846 a 8.4228744,8.4228744 0 0 1 1.132,4.2095 l 0,32.8555 a 8.4228744,8.4228744 0 0 1 -4.209,7.2866 l -28.451,16.4316 a 8.4228744,8.4228744 0 0 1 -4.194,1.1169 l 0,33.7692 a 15.314317,15.314317 0 0 0 7.638,-2.0384 l 51.74,-29.8799 a 15.314317,15.314317 0 0 0 7.653,-13.2453 l 0,-59.7367 a 15.314317,15.314317 0 0 0 -2.054,-7.6536 z"
         inkscape:connector-curvature="0"
         id="path5021"
         style="opacity:0.20040008;fill:#4e9490;fill-opacity:1;stroke:none" />
      <path
         d="m -9582.0171,3915.7876 29.25,16.8935 a 8.4228744,8.4228744 0 0 1 3.079,-3.0854 l 28.454,-16.4278 a 8.4228744,8.4228744 0 0 1 8.415,0 l 28.456,16.4234 a 8.4228744,8.4228744 0 0 1 3.064,3.0735 l 29.245,-16.8846 a 15.314317,15.314317 0 0 0 -5.584,-5.5955 l -51.747,-29.8677 a 15.314317,15.314317 0 0 0 -15.297,-0.01 l -51.734,29.8684 a 15.314317,15.314317 0 0 0 -5.601,5.6055 z"
         inkscape:connector-curvature="0"
         id="path5023"
         style="opacity:0.42080006;fill:#74d76a;fill-opacity:1;stroke:none" />
      <path
         d="m -9428.8631,3940.0599 -29.256,16.8847 a 8.4228744,8.4228744 0 0 1 1.133,4.2094 l 0,32.8555 a 8.4228744,8.4228744 0 0 1 -4.21,7.2866 l -28.45,16.4316 a 8.4228744,8.4228744 0 0 1 -4.194,1.1168 l 0,33.7693 a 15.314317,15.314317 0 0 0 7.638,-2.0383 l 11.519,-6.6539 18.454,10.7228 c 4.478,2.5999 11.689,2.5999 16.167,0 l 14.12,-8.1925 c 4.477,-2.5999 4.477,-6.7874 0,-9.3873 l -18.385,-10.6759 9.864,-5.6933 a 15.314317,15.314317 0 0 0 7.654,-13.2453 l 0,-59.7367 a 15.314317,15.314317 0 0 0 -2.054,-7.6535 z"
         inkscape:connector-curvature="0"
         id="path5025"
         style="opacity:0.28719991;fill:#6ad7b3;fill-opacity:1;stroke:none" />
      <rect
         width="35.016224"
         height="49.001659"
         ry="9.3463697"
         x="-9538.0625"
         y="-1409.8551"
         transform="matrix(0.8648017,-0.50211355,0.8648017,0.50211355,0,0)"
         id="rect5027"
         style="opacity:0.43999999;fill:#c2ee57;fill-opacity:1;stroke:none" />
      <rect
         width="35.016224"
         height="49.001656"
         ry="9.3463688"
         x="-9222.5986"
         y="-1585.1028"
         transform="matrix(0.8648017,-0.50211356,0.8648017,0.50211356,0,0)"
         id="rect5029"
         style="opacity:0.9;fill:#57c97a;fill-opacity:1;stroke:none" />
      <path
         d="m -9349.4881,3702.6749 a 15.314317,15.314317 0 0 0 -8.021,2.054 l -51.732,29.8567 a 15.314317,15.314317 0 0 0 -7.661,13.2609 l 0,59.7445 a 15.314317,15.314317 0 0 0 7.661,13.2454 l 51.732,29.88 a 15.314317,15.314317 0 0 0 15.315,0 l 51.739,-29.88 a 15.314317,15.314317 0 0 0 7.654,-13.2454 l 0,-59.7445 a 15.314317,15.314317 0 0 0 -7.654,-13.2609 l -51.739,-29.8567 a 15.314317,15.314317 0 0 0 -7.294,-2.054 z m -0.164,33.7693 a 8.422874,8.422874 0 0 1 4.014,1.1247 l 28.459,16.4239 a 8.422874,8.422874 0 0 1 4.209,7.2943 l 0,32.8633 a 8.422874,8.422874 0 0 1 -4.209,7.2787 l -28.459,16.4395 a 8.422874,8.422874 0 0 1 -8.419,0 l -28.459,-16.4395 a 8.422874,8.422874 0 0 1 -4.209,-7.2787 l 0,-32.8633 a 8.422874,8.422874 0 0 1 4.209,-7.2943 l 28.459,-16.4239 a 8.422874,8.422874 0 0 1 4.405,-1.1247 z"
         inkscape:connector-curvature="0"
         id="path5031"
         style="font-size:medium;font-style:normal;font-variant:normal;font-weight:normal;font-stretch:normal;text-indent:0;text-align:start;text-decoration:none;line-height:normal;letter-spacing:normal;word-spacing:normal;text-transform:none;direction:ltr;block-progression:tb;writing-mode:lr-tb;text-anchor:start;baseline-shift:baseline;opacity:0.9;color:#000000;fill:#57c97a;fill-opacity:1;fill-rule:nonzero;stroke:none;stroke-width:116.01034546;marker:none;visibility:visible;display:inline;overflow:visible;enable-background:accumulate;font-family:Sans;-inkscape-font-specification:Sans" />
      <path
         d="m -9507.4311,4100.6426 0.01,-33.7781 a 8.4228744,8.4228744 0 0 1 -4.211,-1.1241 l -28.454,-16.4277 a 8.4228744,8.4228744 0 0 1 -4.205,-7.2889 l -0.01,-32.855 a 8.4228744,8.4228744 0 0 1 1.129,-4.1904 l -29.245,-16.8846 a 15.314317,15.314317 0 0 0 -2.053,7.6339 l 0.01,59.7476 a 15.314317,15.314317 0 0 0 7.644,13.2509 l 51.733,29.8683 a 15.314317,15.314317 0 0 0 7.655,2.048 z"
         inkscape:connector-curvature="0"
         id="path5033"
         style="opacity:0.12556057;fill:#6ad7c8;fill-opacity:1;stroke:none" />
    </g>
  </g>
</svg>
