<?xml version="1.0" encoding="UTF-8" standalone="no"?>
<!-- Created with Inkscape (http://www.inkscape.org/) -->

<svg
   xmlns:dc="http://purl.org/dc/elements/1.1/"
   xmlns:cc="http://creativecommons.org/ns#"
   xmlns:rdf="http://www.w3.org/1999/02/22-rdf-syntax-ns#"
   xmlns:svg="http://www.w3.org/2000/svg"
   xmlns="http://www.w3.org/2000/svg"
   xmlns:inkscape="http://www.inkscape.org/namespaces/inkscape"
   version="1.1"
   width="1920"
   height="1080"
   id="svg3627">
  <defs
     id="defs3629" />
  <metadata
     id="metadata3632">
    <rdf:RDF>
      <cc:Work
         rdf:about="">
        <dc:format>image/svg+xml</dc:format>
        <dc:type
           rdf:resource="http://purl.org/dc/dcmitype/StillImage" />
        <dc:title />
      </cc:Work>
    </rdf:RDF>
  </metadata>
  <g
     id="layer1">
    <g
       transform="translate(-870,-636.66669)"
       id="g3761">
      <rect
         width="1920.4301"
         height="1080"
         ry="0"
         x="869.78497"
         y="636.66669"
         id="rect4721"
         style="fill:#333333;fill-opacity:1;fill-rule:nonzero;stroke:none;display:inline" />
      <path
         d="m 1237.6996,1321.746 a 15.314317,15.314317 0 0 0 -8.021,2.0539 l -51.732,29.8567 a 15.314317,15.314317 0 0 0 -7.661,13.2609 l 0,59.7446 a 15.314317,15.314317 0 0 0 7.661,13.2453 l 51.732,29.88 a 15.314317,15.314317 0 0 0 15.315,0 l 51.739,-29.88 a 15.314317,15.314317 0 0 0 7.654,-13.2453 l 0,-59.7446 a 15.314317,15.314317 0 0 0 -7.654,-13.2609 l -51.739,-29.8567 a 15.314317,15.314317 0 0 0 -7.294,-2.0539 z m -0.164,33.7693 a 8.4228744,8.4228744 0 0 1 4.014,1.1246 l 28.459,16.4239 a 8.4228744,8.4228744 0 0 1 4.209,7.2943 l 0,32.8634 a 8.4228744,8.4228744 0 0 1 -4.209,7.2786 l -28.459,16.4396 a 8.4228744,8.4228744 0 0 1 -8.419,0 l -28.459,-16.4396 a 8.4228744,8.4228744 0 0 1 -4.209,-7.2786 l 0,-32.8634 a 8.4228744,8.4228744 0 0 1 4.209,-7.2943 l 28.459,-16.4239 a 8.4228744,8.4228744 0 0 1 4.405,-1.1246 z"
         inkscape:connector-curvature="0"
         id="path4616"
         style="font-size:medium;font-style:normal;font-variant:normal;font-weight:normal;font-stretch:normal;text-indent:0;text-align:start;text-decoration:none;line-height:normal;letter-spacing:normal;word-spacing:normal;text-transform:none;direction:ltr;block-progression:tb;writing-mode:lr-tb;text-anchor:start;baseline-shift:baseline;opacity:0.12000002;color:#000000;fill:#57a3ee;fill-opacity:1;fill-rule:nonzero;stroke:none;stroke-width:116.01034546;marker:none;visibility:visible;display:inline;overflow:visible;enable-background:accumulate;font-family:Sans;-inkscape-font-specification:Sans" />
      <path
         d="m 1276.3446,1242.4305 a 15.314317,15.314317 0 0 0 -8.02,2.0482 l -51.738,29.8599 a 15.314317,15.314317 0 0 0 -7.656,13.2646 l 0,59.739 a 15.314317,15.314317 0 0 0 7.656,13.2457 l 51.738,29.8789 a 15.314317,15.314317 0 0 0 15.313,0 l 51.738,-29.8789 a 15.314317,15.314317 0 0 0 7.657,-13.2457 l 0,-59.739 a 15.314317,15.314317 0 0 0 -7.657,-13.2646 l -51.738,-29.8599 a 15.314317,15.314317 0 0 0 -7.293,-2.0482 z"
         inkscape:connector-curvature="0"
         id="path4619"
         style="font-size:medium;font-style:normal;font-variant:normal;font-weight:normal;font-stretch:normal;text-indent:0;text-align:start;text-decoration:none;line-height:normal;letter-spacing:normal;word-spacing:normal;text-transform:none;direction:ltr;block-progression:tb;writing-mode:lr-tb;text-anchor:start;baseline-shift:baseline;opacity:0.18520005;color:#000000;fill:#8a4e94;fill-opacity:1;fill-rule:nonzero;stroke:none;stroke-width:116.01034546;marker:none;visibility:visible;display:inline;overflow:visible;enable-background:accumulate;font-family:Sans;-inkscape-font-specification:Sans" />
      <path
         d="m 1276.1816,1276.1992 a 8.4228744,8.4228744 0 0 0 -4.411,1.1266 l -28.456,16.4229 a 8.4228744,8.4228744 0 0 0 -4.211,7.2955 l 0,32.8565 a 8.4228744,8.4228744 0 0 0 4.211,7.2851 l 28.456,16.4334 a 8.4228744,8.4228744 0 0 0 8.422,0 l 28.456,-16.4334 a 8.4228744,8.4228744 0 0 0 4.211,-7.2851 l 0,-32.8565 a 8.4228744,8.4228744 0 0 0 -4.211,-7.2955 l -28.456,-16.4229 a 8.4228744,8.4228744 0 0 0 -4.011,-1.1266 z"
         inkscape:connector-curvature="0"
         id="path4621"
         style="font-size:medium;font-style:normal;font-variant:normal;font-weight:normal;font-stretch:normal;text-indent:0;text-align:start;text-decoration:none;line-height:normal;letter-spacing:normal;word-spacing:normal;text-transform:none;direction:ltr;block-progression:tb;writing-mode:lr-tb;text-anchor:start;baseline-shift:baseline;opacity:0.21919998;color:#000000;fill:#57a3ee;fill-opacity:1;fill-rule:nonzero;stroke:none;stroke-width:116.01034546;marker:none;visibility:visible;display:inline;overflow:visible;enable-background:accumulate;font-family:Sans;-inkscape-font-specification:Sans" />
      <path
         d="m 1367.0286,1413.2672 -29.255,16.8846 a 8.4228744,8.4228744 0 0 1 1.132,4.2095 l 0,32.8555 a 8.4228744,8.4228744 0 0 1 -4.209,7.2866 l -28.451,16.4316 a 8.4228744,8.4228744 0 0 1 -4.194,1.1169 l 0,33.7692 a 15.314317,15.314317 0 0 0 7.638,-2.0384 l 51.74,-29.8799 a 15.314317,15.314317 0 0 0 7.653,-13.2453 l 0,-59.7367 a 15.314317,15.314317 0 0 0 -2.054,-7.6536 z"
         inkscape:connector-curvature="0"
         id="path4623"
         style="opacity:0.20040008;fill:#8a4e94;fill-opacity:1;stroke:none;display:inline" />
      <path
         d="m 1113.3196,1413.0845 29.25,16.8935 a 8.4228744,8.4228744 0 0 1 3.079,-3.0854 l 28.454,-16.4278 a 8.4228744,8.4228744 0 0 1 8.415,0 l 28.456,16.4234 a 8.4228744,8.4228744 0 0 1 3.064,3.0735 l 29.245,-16.8846 a 15.314317,15.314317 0 0 0 -5.584,-5.5955 l -51.747,-29.8677 a 15.314317,15.314317 0 0 0 -15.297,-0.01 l -51.734,29.8684 a 15.314317,15.314317 0 0 0 -5.601,5.6055 z"
         inkscape:connector-curvature="0"
         id="path4625"
         style="opacity:0.42080006;fill:#776ad7;fill-opacity:1;stroke:none;display:inline" />
      <path
         d="m 1266.4736,1437.3568 -29.256,16.8847 a 8.4228744,8.4228744 0 0 1 1.133,4.2094 l 0,32.8555 a 8.4228744,8.4228744 0 0 1 -4.21,7.2866 l -28.45,16.4316 a 8.4228744,8.4228744 0 0 1 -4.194,1.1168 l 0,33.7693 a 15.314317,15.314317 0 0 0 7.638,-2.0383 l 11.519,-6.6539 18.454,10.7228 c 4.478,2.5999 11.689,2.5999 16.167,0 l 14.12,-8.1925 c 4.477,-2.5999 4.477,-6.7874 0,-9.3873 l -18.385,-10.6759 9.864,-5.6933 a 15.314317,15.314317 0 0 0 7.654,-13.2453 l 0,-59.7367 a 15.314317,15.314317 0 0 0 -2.054,-7.6535 z"
         inkscape:connector-curvature="0"
         id="path4627"
         style="opacity:0.28719991;fill:#776ad7;fill-opacity:1;stroke:none;display:inline" />
      <rect
         width="35.016224"
         height="49.001659"
         ry="9.3463697"
         x="-862.20032"
         y="2281.6694"
         transform="matrix(0.8648017,-0.50211355,0.8648017,0.50211355,0,0)"
         id="rect4629"
         style="opacity:0.43999999;fill:#57a3ee;fill-opacity:1;stroke:none;display:inline" />
      <rect
         width="35.016224"
         height="49.001656"
         ry="9.3463688"
         x="-546.73694"
         y="2106.4221"
         transform="matrix(0.8648017,-0.50211356,0.8648017,0.50211356,0,0)"
         id="rect4631"
         style="opacity:0.9;fill:#57a3ee;fill-opacity:1;stroke:none;display:inline" />
      <path
         d="m 1345.8486,1199.9718 a 15.314317,15.314317 0 0 0 -8.021,2.054 l -51.732,29.8567 a 15.314317,15.314317 0 0 0 -7.661,13.2609 l 0,59.7445 a 15.314317,15.314317 0 0 0 7.661,13.2454 l 51.732,29.88 a 15.314317,15.314317 0 0 0 15.315,0 l 51.739,-29.88 a 15.314317,15.314317 0 0 0 7.654,-13.2454 l 0,-59.7445 a 15.314317,15.314317 0 0 0 -7.654,-13.2609 l -51.739,-29.8567 a 15.314317,15.314317 0 0 0 -7.294,-2.054 z m -0.164,33.7693 a 8.422874,8.422874 0 0 1 4.014,1.1247 l 28.459,16.4239 a 8.422874,8.422874 0 0 1 4.209,7.2943 l 0,32.8633 a 8.422874,8.422874 0 0 1 -4.209,7.2787 l -28.459,16.4395 a 8.422874,8.422874 0 0 1 -8.419,0 l -28.459,-16.4395 a 8.422874,8.422874 0 0 1 -4.209,-7.2787 l 0,-32.8633 a 8.422874,8.422874 0 0 1 4.209,-7.2943 l 28.459,-16.4239 a 8.422874,8.422874 0 0 1 4.405,-1.1247 z"
         inkscape:connector-curvature="0"
         id="path4633"
         style="font-size:medium;font-style:normal;font-variant:normal;font-weight:normal;font-stretch:normal;text-indent:0;text-align:start;text-decoration:none;line-height:normal;letter-spacing:normal;word-spacing:normal;text-transform:none;direction:ltr;block-progression:tb;writing-mode:lr-tb;text-anchor:start;baseline-shift:baseline;opacity:0.9;color:#000000;fill:#57a3ee;fill-opacity:1;fill-rule:nonzero;stroke:none;stroke-width:116.01034546;marker:none;visibility:visible;display:inline;overflow:visible;enable-background:accumulate;font-family:Sans;-inkscape-font-specification:Sans" />
      <path
         d="m 1187.9056,1597.9395 0.01,-33.7781 a 8.4228744,8.4228744 0 0 1 -4.211,-1.1241 l -28.454,-16.4277 a 8.4228744,8.4228744 0 0 1 -4.205,-7.2889 l -0.01,-32.855 a 8.4228744,8.4228744 0 0 1 1.129,-4.1904 l -29.245,-16.8846 a 15.314317,15.314317 0 0 0 -2.053,7.6339 l 0.01,59.7476 a 15.314317,15.314317 0 0 0 7.644,13.2509 l 51.733,29.8683 a 15.314317,15.314317 0 0 0 7.655,2.048 z"
         inkscape:connector-curvature="0"
         id="path4635"
         style="opacity:0.12556057;fill:#776ad7;fill-opacity:1;stroke:none;display:inline" />
    </g>
  </g>
</svg>
