<?xml version="1.0" encoding="UTF-8" standalone="no"?>
<!-- Created with Inkscape (http://www.inkscape.org/) -->

<svg
   xmlns:dc="http://purl.org/dc/elements/1.1/"
   xmlns:cc="http://creativecommons.org/ns#"
   xmlns:rdf="http://www.w3.org/1999/02/22-rdf-syntax-ns#"
   xmlns:svg="http://www.w3.org/2000/svg"
   xmlns="http://www.w3.org/2000/svg"
   xmlns:inkscape="http://www.inkscape.org/namespaces/inkscape"
   version="1.1"
   width="1920"
   height="1080"
   id="svg3627">
  <defs
     id="defs3629" />
  <metadata
     id="metadata3632">
    <rdf:RDF>
      <cc:Work
         rdf:about="">
        <dc:format>image/svg+xml</dc:format>
        <dc:type
           rdf:resource="http://purl.org/dc/dcmitype/StillImage" />
        <dc:title />
      </cc:Work>
    </rdf:RDF>
  </metadata>
  <g
     id="layer1">
    <g
       transform="translate(-826.66669,-513.33331)"
       id="g4133">
      <rect
         width="1920.4301"
         height="1080"
         ry="0"
         x="826.45166"
         y="513.33331"
         id="rect4584"
         style="fill:#434b53;fill-opacity:1;fill-rule:nonzero;stroke:none;display:inline" />
      <g
         transform="translate(8529.6367,-6463.8161)"
         id="g4062"
         style="display:inline">
        <path
           d="m -7335.2702,7662.2286 a 15.314317,15.314317 0 0 0 -8.0206,2.0539 l -51.7317,29.8567 a 15.314317,15.314317 0 0 0 -7.6614,13.2609 l 0,59.7446 a 15.314317,15.314317 0 0 0 7.6614,13.2453 l 51.7317,29.88 a 15.314317,15.314317 0 0 0 15.3149,0 l 51.7395,-29.88 a 15.314317,15.314317 0 0 0 7.6536,-13.2453 l 0,-59.7446 a 15.314317,15.314317 0 0 0 -7.6536,-13.2609 l -51.7395,-29.8567 a 15.314317,15.314317 0 0 0 -7.2943,-2.0539 z m -0.164,33.7692 a 8.4228744,8.4228744 0 0 1 4.0142,1.1247 l 28.4587,16.4239 a 8.4228744,8.4228744 0 0 1 4.2095,7.2943 l 0,32.8634 a 8.4228744,8.4228744 0 0 1 -4.2095,7.2786 l -28.4587,16.4396 a 8.4228744,8.4228744 0 0 1 -8.4189,0 l -28.4587,-16.4396 a 8.4228744,8.4228744 0 0 1 -4.2095,-7.2786 l 0,-32.8634 a 8.4228744,8.4228744 0 0 1 4.2095,-7.2943 l 28.4587,-16.4239 a 8.4228744,8.4228744 0 0 1 4.4047,-1.1247 z"
           inkscape:connector-curvature="0"
           id="path4586"
           style="font-size:medium;font-style:normal;font-variant:normal;font-weight:normal;font-stretch:normal;text-indent:0;text-align:start;text-decoration:none;line-height:normal;letter-spacing:normal;word-spacing:normal;text-transform:none;direction:ltr;block-progression:tb;writing-mode:lr-tb;text-anchor:start;baseline-shift:baseline;opacity:0.07999998;color:#000000;fill:#ffffff;fill-opacity:1;fill-rule:nonzero;stroke:none;stroke-width:116.01034546;marker:none;visibility:visible;display:inline;overflow:visible;enable-background:accumulate;font-family:Sans;-inkscape-font-specification:Sans" />
        <path
           d="m -7296.6244,7582.9131 a 15.314317,15.314317 0 0 0 -8.02,2.0481 l -51.7381,29.86 a 15.314317,15.314317 0 0 0 -7.6564,13.2646 l 0,59.739 a 15.314317,15.314317 0 0 0 7.6564,13.2457 l 51.7381,29.8789 a 15.314317,15.314317 0 0 0 15.3128,0 l 51.738,-29.8789 a 15.314317,15.314317 0 0 0 7.6564,-13.2457 l 0,-59.739 a 15.314317,15.314317 0 0 0 -7.6564,-13.2646 l -51.738,-29.86 a 15.314317,15.314317 0 0 0 -7.2928,-2.0481 z"
           inkscape:connector-curvature="0"
           id="path4588"
           style="font-size:medium;font-style:normal;font-variant:normal;font-weight:normal;font-stretch:normal;text-indent:0;text-align:start;text-decoration:none;line-height:normal;letter-spacing:normal;word-spacing:normal;text-transform:none;direction:ltr;block-progression:tb;writing-mode:lr-tb;text-anchor:start;baseline-shift:baseline;opacity:0.18520005;color:#000000;fill:#ffffff;fill-opacity:1;fill-rule:nonzero;stroke:none;stroke-width:116.01034546;marker:none;visibility:visible;display:inline;overflow:visible;enable-background:accumulate;font-family:Sans;-inkscape-font-specification:Sans" />
        <path
           d="m -7296.7881,7616.6818 a 8.4228744,8.4228744 0 0 0 -4.4109,1.1266 l -28.456,16.4229 a 8.4228744,8.4228744 0 0 0 -4.211,7.2955 l 0,32.8565 a 8.4228744,8.4228744 0 0 0 4.211,7.2851 l 28.456,16.4334 a 8.4228744,8.4228744 0 0 0 8.422,0 l 28.456,-16.4334 a 8.4228744,8.4228744 0 0 0 4.2109,-7.2851 l 0,-32.8565 a 8.4228744,8.4228744 0 0 0 -4.2109,-7.2955 l -28.456,-16.4229 a 8.4228744,8.4228744 0 0 0 -4.0111,-1.1266 z"
           inkscape:connector-curvature="0"
           id="path4590"
           style="font-size:medium;font-style:normal;font-variant:normal;font-weight:normal;font-stretch:normal;text-indent:0;text-align:start;text-decoration:none;line-height:normal;letter-spacing:normal;word-spacing:normal;text-transform:none;direction:ltr;block-progression:tb;writing-mode:lr-tb;text-anchor:start;baseline-shift:baseline;opacity:0.21919998;color:#000000;fill:#ffffff;fill-opacity:1;fill-rule:nonzero;stroke:none;stroke-width:116.01034546;marker:none;visibility:visible;display:inline;overflow:visible;enable-background:accumulate;font-family:Sans;-inkscape-font-specification:Sans" />
        <path
           d="m -7205.9405,7753.7498 -29.2553,16.8846 a 8.4228744,8.4228744 0 0 1 1.1324,4.2095 l 0,32.8555 a 8.4228744,8.4228744 0 0 1 -4.2095,7.2866 l -28.4508,16.4316 a 8.4228744,8.4228744 0 0 1 -4.1939,1.1169 l 0,33.7692 a 15.314317,15.314317 0 0 0 7.638,-2.0384 l 51.7394,-29.8799 a 15.314317,15.314317 0 0 0 7.6536,-13.2453 l 0,-59.7368 a 15.314317,15.314317 0 0 0 -2.0539,-7.6535 z"
           inkscape:connector-curvature="0"
           id="path4592"
           style="opacity:0.25;fill:#ffffff;fill-opacity:1;stroke:none" />
        <path
           d="m -7459.6499,7753.5671 29.2502,16.8935 a 8.4228744,8.4228744 0 0 1 3.0793,-3.0854 l 28.4538,-16.4278 a 8.4228744,8.4228744 0 0 1 8.415,0 l 28.4558,16.4234 a 8.4228744,8.4228744 0 0 1 3.0641,3.0735 l 29.245,-16.8846 a 15.314317,15.314317 0 0 0 -5.5842,-5.5955 l -51.7467,-29.8677 a 15.314317,15.314317 0 0 0 -15.2975,-0.01 l -51.7336,29.8684 a 15.314317,15.314317 0 0 0 -5.6012,5.6055 z"
           inkscape:connector-curvature="0"
           id="path4594"
           style="opacity:0.3;fill:#ffffff;fill-opacity:1;stroke:none" />
        <path
           d="m -7306.4961,7777.8393 -29.2553,16.8848 a 8.4228744,8.4228744 0 0 1 1.1324,4.2094 l 0,32.8555 a 8.4228744,8.4228744 0 0 1 -4.2094,7.2866 l -28.4509,16.4316 a 8.4228744,8.4228744 0 0 1 -4.1939,1.1168 l 0,33.7693 a 15.314317,15.314317 0 0 0 7.638,-2.0383 l 11.5194,-6.6539 18.4544,10.7228 c 4.4778,2.5999 11.6883,2.5999 16.1661,0 l 14.1201,-8.1925 c 4.4778,-2.5999 4.4778,-6.7874 0,-9.3873 l -18.3842,-10.6759 9.8637,-5.6933 a 15.314317,15.314317 0 0 0 7.6535,-13.2453 l 0,-59.7367 a 15.314317,15.314317 0 0 0 -2.0539,-7.6536 z"
           inkscape:connector-curvature="0"
           id="path4596"
           style="opacity:0.16000001;fill:#ffffff;fill-opacity:1;stroke:none" />
        <rect
           width="35.016224"
           height="49.001659"
           ry="9.3463697"
           x="-12132.604"
           y="3638.8538"
           transform="matrix(0.8648017,-0.50211355,0.8648017,0.50211355,0,0)"
           id="rect4598"
           style="opacity:0.29147985;fill:#ffffff;fill-opacity:1;stroke:none" />
        <rect
           width="35.016224"
           height="49.001656"
           ry="9.3463688"
           x="-11817.14"
           y="3463.6055"
           transform="matrix(0.8648017,-0.50211356,0.8648017,0.50211356,0,0)"
           id="rect4600"
           style="opacity:0.9;fill:#ffffff;fill-opacity:1;stroke:none" />
        <path
           d="m -7227.1212,7540.4544 a 15.314317,15.314317 0 0 0 -8.0206,2.054 l -51.7317,29.8566 a 15.314317,15.314317 0 0 0 -7.6614,13.261 l 0,59.7445 a 15.314317,15.314317 0 0 0 7.6614,13.2453 l 51.7317,29.8801 a 15.314317,15.314317 0 0 0 15.3149,0 l 51.7395,-29.8801 a 15.314317,15.314317 0 0 0 7.6536,-13.2453 l 0,-59.7445 a 15.314317,15.314317 0 0 0 -7.6536,-13.261 l -51.7395,-29.8566 a 15.314317,15.314317 0 0 0 -7.2943,-2.054 z m -0.164,33.7693 a 8.422874,8.422874 0 0 1 4.0142,1.1246 l 28.4587,16.4239 a 8.422874,8.422874 0 0 1 4.2095,7.2943 l 0,32.8634 a 8.422874,8.422874 0 0 1 -4.2095,7.2787 l -28.4587,16.4395 a 8.422874,8.422874 0 0 1 -8.4189,0 l -28.4587,-16.4395 a 8.422874,8.422874 0 0 1 -4.2095,-7.2787 l 0,-32.8634 a 8.422874,8.422874 0 0 1 4.2095,-7.2943 l 28.4587,-16.4239 a 8.422874,8.422874 0 0 1 4.4047,-1.1246 z"
           inkscape:connector-curvature="0"
           id="path4602"
           style="font-size:medium;font-style:normal;font-variant:normal;font-weight:normal;font-stretch:normal;text-indent:0;text-align:start;text-decoration:none;line-height:normal;letter-spacing:normal;word-spacing:normal;text-transform:none;direction:ltr;block-progression:tb;writing-mode:lr-tb;text-anchor:start;baseline-shift:baseline;opacity:0.9;color:#000000;fill:#ffffff;fill-opacity:1;fill-rule:nonzero;stroke:none;stroke-width:116.01034546;marker:none;visibility:visible;display:inline;overflow:visible;enable-background:accumulate;font-family:Sans;-inkscape-font-specification:Sans" />
        <path
           d="m -7385.0635,7938.4221 0.01,-33.7781 a 8.4228744,8.4228744 0 0 1 -4.2118,-1.1241 l -28.4537,-16.4277 a 8.4228744,8.4228744 0 0 1 -4.2053,-7.2889 l -0.01,-32.855 a 8.4228744,8.4228744 0 0 1 1.1298,-4.1904 l -29.2451,-16.8846 a 15.314317,15.314317 0 0 0 -2.0537,7.6338 l 0.01,59.7477 a 15.314317,15.314317 0 0 0 7.644,13.2509 l 51.7335,29.8683 a 15.314317,15.314317 0 0 0 7.6551,2.048 z"
           inkscape:connector-curvature="0"
           id="path4604"
           style="opacity:0.12556057;fill:#ffffff;fill-opacity:1;stroke:none" />
      </g>
    </g>
  </g>
</svg>
