<?xml version="1.0" encoding="UTF-8" standalone="no"?>
<!-- Created with Inkscape (http://www.inkscape.org/) -->

<svg
   xmlns:dc="http://purl.org/dc/elements/1.1/"
   xmlns:cc="http://creativecommons.org/ns#"
   xmlns:rdf="http://www.w3.org/1999/02/22-rdf-syntax-ns#"
   xmlns:svg="http://www.w3.org/2000/svg"
   xmlns="http://www.w3.org/2000/svg"
   xmlns:inkscape="http://www.inkscape.org/namespaces/inkscape"
   version="1.1"
   width="1920"
   height="1080"
   id="svg3627">
  <defs
     id="defs3629" />
  <metadata
     id="metadata3632">
    <rdf:RDF>
      <cc:Work
         rdf:about="">
        <dc:format>image/svg+xml</dc:format>
        <dc:type
           rdf:resource="http://purl.org/dc/dcmitype/StillImage" />
        <dc:title />
      </cc:Work>
    </rdf:RDF>
  </metadata>
  <g
     id="layer1">
    <g
       transform="translate(-410,-273.33334)"
       id="g3962">
      <rect
         width="1920.4301"
         height="1080"
         ry="0"
         x="409.78497"
         y="273.33334"
         id="rect4973"
         style="fill:#333333;fill-opacity:1;fill-rule:nonzero;stroke:none;display:inline" />
      <g
         transform="translate(10235.337,-2874.1174)"
         id="g4999"
         style="display:inline">
        <path
           d="m -9457.6377,3832.5301 a 15.314317,15.314317 0 0 0 -8.0205,2.054 l -51.7318,29.8566 a 15.314317,15.314317 0 0 0 -7.6613,13.261 l 0,59.7445 a 15.314317,15.314317 0 0 0 7.6613,13.2454 l 51.7318,29.88 a 15.314317,15.314317 0 0 0 15.3149,0 l 51.7395,-29.88 a 15.314317,15.314317 0 0 0 7.6536,-13.2454 l 0,-59.7445 a 15.314317,15.314317 0 0 0 -7.6536,-13.261 l -51.7395,-29.8566 a 15.314317,15.314317 0 0 0 -7.2944,-2.054 z m -0.1639,33.7693 a 8.4228744,8.4228744 0 0 1 4.0142,1.1246 l 28.4587,16.424 a 8.4228744,8.4228744 0 0 1 4.2095,7.2942 l 0,32.8634 a 8.4228744,8.4228744 0 0 1 -4.2095,7.2787 l -28.4587,16.4395 a 8.4228744,8.4228744 0 0 1 -8.4189,0 l -28.4587,-16.4395 a 8.4228744,8.4228744 0 0 1 -4.2095,-7.2787 l 0,-32.8634 a 8.4228744,8.4228744 0 0 1 4.2095,-7.2942 l 28.4587,-16.424 a 8.4228744,8.4228744 0 0 1 4.4047,-1.1246 z"
           inkscape:connector-curvature="0"
           id="path4975"
           style="font-size:medium;font-style:normal;font-variant:normal;font-weight:normal;font-stretch:normal;text-indent:0;text-align:start;text-decoration:none;line-height:normal;letter-spacing:normal;word-spacing:normal;text-transform:none;direction:ltr;block-progression:tb;writing-mode:lr-tb;text-anchor:start;baseline-shift:baseline;opacity:0.12000002;color:#000000;fill:#8d491d;fill-opacity:1;fill-rule:nonzero;stroke:none;stroke-width:116.01034546;marker:none;visibility:visible;display:inline;overflow:visible;enable-background:accumulate;font-family:Sans;-inkscape-font-specification:Sans" />
        <path
           d="m -9418.9918,3753.2146 a 15.314317,15.314317 0 0 0 -8.0201,2.0482 l -51.738,29.8599 a 15.314317,15.314317 0 0 0 -7.6564,13.2646 l 0,59.7391 a 15.314317,15.314317 0 0 0 7.6564,13.2457 l 51.738,29.8789 a 15.314317,15.314317 0 0 0 15.3129,0 l 51.738,-29.8789 a 15.314317,15.314317 0 0 0 7.6564,-13.2457 l 0,-59.7391 a 15.314317,15.314317 0 0 0 -7.6564,-13.2646 l -51.738,-29.8599 a 15.314317,15.314317 0 0 0 -7.2928,-2.0482 z"
           inkscape:connector-curvature="0"
           id="path4977"
           style="font-size:medium;font-style:normal;font-variant:normal;font-weight:normal;font-stretch:normal;text-indent:0;text-align:start;text-decoration:none;line-height:normal;letter-spacing:normal;word-spacing:normal;text-transform:none;direction:ltr;block-progression:tb;writing-mode:lr-tb;text-anchor:start;baseline-shift:baseline;opacity:0.18520005;color:#000000;fill:#fdcb6b;fill-opacity:1;fill-rule:nonzero;stroke:none;stroke-width:116.01034546;marker:none;visibility:visible;display:inline;overflow:visible;enable-background:accumulate;font-family:Sans;-inkscape-font-specification:Sans" />
        <path
           d="m -9419.1555,3786.9834 a 8.4228744,8.4228744 0 0 0 -4.4109,1.1265 l -28.456,16.4229 a 8.4228744,8.4228744 0 0 0 -4.211,7.2956 l 0,32.8564 a 8.4228744,8.4228744 0 0 0 4.211,7.2851 l 28.456,16.4335 a 8.4228744,8.4228744 0 0 0 8.422,0 l 28.4559,-16.4335 a 8.4228744,8.4228744 0 0 0 4.211,-7.2851 l 0,-32.8564 a 8.4228744,8.4228744 0 0 0 -4.211,-7.2956 l -28.4559,-16.4229 a 8.4228744,8.4228744 0 0 0 -4.0111,-1.1265 z"
           inkscape:connector-curvature="0"
           id="path4979"
           style="font-size:medium;font-style:normal;font-variant:normal;font-weight:normal;font-stretch:normal;text-indent:0;text-align:start;text-decoration:none;line-height:normal;letter-spacing:normal;word-spacing:normal;text-transform:none;direction:ltr;block-progression:tb;writing-mode:lr-tb;text-anchor:start;baseline-shift:baseline;opacity:0.21919998;color:#000000;fill:#ff6600;fill-opacity:1;fill-rule:nonzero;stroke:none;stroke-width:116.01034546;marker:none;visibility:visible;display:inline;overflow:visible;enable-background:accumulate;font-family:Sans;-inkscape-font-specification:Sans" />
        <path
           d="m -9328.308,3924.0513 -29.2552,16.8847 a 8.4228744,8.4228744 0 0 1 1.1324,4.2094 l 0,32.8556 a 8.4228744,8.4228744 0 0 1 -4.2095,7.2865 l -28.4509,16.4317 a 8.4228744,8.4228744 0 0 1 -4.1938,1.1168 l 0,33.7692 a 15.314317,15.314317 0 0 0 7.6379,-2.0384 l 51.7395,-29.8799 a 15.314317,15.314317 0 0 0 7.6536,-13.2453 l 0,-59.7367 a 15.314317,15.314317 0 0 0 -2.054,-7.6536 z"
           inkscape:connector-curvature="0"
           id="path4981"
           style="opacity:0.20040008;fill:#ff8239;fill-opacity:1;stroke:none" />
        <path
           d="m -9582.0173,3923.8687 29.2502,16.8934 a 8.4228744,8.4228744 0 0 1 3.0793,-3.0853 l 28.4538,-16.4278 a 8.4228744,8.4228744 0 0 1 8.415,0 l 28.4558,16.4233 a 8.4228744,8.4228744 0 0 1 3.064,3.0736 l 29.2451,-16.8847 a 15.314317,15.314317 0 0 0 -5.5842,-5.5954 l -51.7467,-29.8677 a 15.314317,15.314317 0 0 0 -15.2975,-0.01 l -51.7336,29.8683 a 15.314317,15.314317 0 0 0 -5.6012,5.6056 z"
           inkscape:connector-curvature="0"
           id="path4983"
           style="opacity:0.42080006;fill:#ff8343;fill-opacity:1;stroke:none" />
        <path
           d="m -9428.8635,3948.1409 -29.2553,16.8847 a 8.4228744,8.4228744 0 0 1 1.1324,4.2095 l 0,32.8555 a 8.4228744,8.4228744 0 0 1 -4.2095,7.2866 l -28.4508,16.4315 a 8.4228744,8.4228744 0 0 1 -4.1939,1.1168 l 0,33.7693 a 15.314317,15.314317 0 0 0 7.638,-2.0383 l 11.5193,-6.6539 18.4545,10.7228 c 4.4778,2.5999 11.6882,2.5999 16.1661,0 l 14.1201,-8.1925 c 4.4778,-2.5999 4.4778,-6.7874 0,-9.3873 l -18.3842,-10.6759 9.8637,-5.6933 a 15.314317,15.314317 0 0 0 7.6535,-13.2453 l 0,-59.7366 a 15.314317,15.314317 0 0 0 -2.0539,-7.6536 z"
           inkscape:connector-curvature="0"
           id="path4985"
           style="opacity:0.28719991;fill:#ffdc55;fill-opacity:1;stroke:none" />
        <rect
           width="35.016224"
           height="49.001659"
           ry="9.3463697"
           x="-9546.1094"
           y="-1401.8077"
           transform="matrix(0.8648017,-0.50211355,0.8648017,0.50211355,0,0)"
           id="rect4987"
           style="opacity:0.23720003;fill:#ff831e;fill-opacity:1;stroke:none" />
        <rect
           width="35.016224"
           height="49.001656"
           ry="9.3463688"
           x="-9230.6455"
           y="-1577.0554"
           transform="matrix(0.8648017,-0.50211356,0.8648017,0.50211356,0,0)"
           id="rect4989"
           style="opacity:0.9;fill:#ffcc6b;fill-opacity:1;stroke:none" />
        <path
           d="m -9349.4886,3710.7559 a 15.314317,15.314317 0 0 0 -8.0206,2.054 l -51.7318,29.8567 a 15.314317,15.314317 0 0 0 -7.6613,13.2609 l 0,59.7446 a 15.314317,15.314317 0 0 0 7.6613,13.2453 l 51.7318,29.88 a 15.314317,15.314317 0 0 0 15.3149,0 l 51.7395,-29.88 a 15.314317,15.314317 0 0 0 7.6536,-13.2453 l 0,-59.7446 a 15.314317,15.314317 0 0 0 -7.6536,-13.2609 l -51.7395,-29.8567 a 15.314317,15.314317 0 0 0 -7.2943,-2.054 z m -0.164,33.7693 a 8.422874,8.422874 0 0 1 4.0142,1.1247 l 28.4587,16.4239 a 8.422874,8.422874 0 0 1 4.2094,7.2943 l 0,32.8634 a 8.422874,8.422874 0 0 1 -4.2094,7.2787 l -28.4587,16.4395 a 8.422874,8.422874 0 0 1 -8.4189,0 l -28.4587,-16.4395 a 8.422874,8.422874 0 0 1 -4.2095,-7.2787 l 0,-32.8634 a 8.422874,8.422874 0 0 1 4.2095,-7.2943 l 28.4587,-16.4239 a 8.422874,8.422874 0 0 1 4.4047,-1.1247 z"
           inkscape:connector-curvature="0"
           id="path4991"
           style="font-size:medium;font-style:normal;font-variant:normal;font-weight:normal;font-stretch:normal;text-indent:0;text-align:start;text-decoration:none;line-height:normal;letter-spacing:normal;word-spacing:normal;text-transform:none;direction:ltr;block-progression:tb;writing-mode:lr-tb;text-anchor:start;baseline-shift:baseline;opacity:0.9;color:#000000;fill:#ffcc6b;fill-opacity:1;fill-rule:nonzero;stroke:none;stroke-width:116.01034546;marker:none;visibility:visible;display:inline;overflow:visible;enable-background:accumulate;font-family:Sans;-inkscape-font-specification:Sans" />
        <path
           d="m -9507.431,4108.7236 0.01,-33.7781 a 8.4228744,8.4228744 0 0 1 -4.2117,-1.1241 l -28.4537,-16.4276 a 8.4228744,8.4228744 0 0 1 -4.2053,-7.2889 l -0.01,-32.8551 a 8.4228744,8.4228744 0 0 1 1.1298,-4.1903 l -29.2451,-16.8847 a 15.314317,15.314317 0 0 0 -2.0537,7.6339 l 0.01,59.7476 a 15.314317,15.314317 0 0 0 7.644,13.2509 l 51.7335,29.8683 a 15.314317,15.314317 0 0 0 7.6551,2.048 z"
           inkscape:connector-curvature="0"
           id="path4993"
           style="opacity:0.12556057;fill:#ffb757;fill-opacity:1;stroke:none" />
      </g>
    </g>
  </g>
</svg>
