<svg width="48" height="48" viewBox="0 0 48 48" fill="none" xmlns="http://www.w3.org/2000/svg">
<path d="M4 1.5H44C45.385 1.5 46.5 2.61508 46.5 4.00003V44C46.5 45.3851 45.385 46.4999 44 46.4999H4C2.61501 46.4999 1.5 45.3851 1.5 44V4.00003C1.5 2.61508 2.61501 1.5 4 1.5Z" fill="#EAB308"/>
<path d="M23.8125 10.5792C23.3986 10.6187 22.9991 10.7518 22.6442 10.9685L13.3846 16.2907C12.9644 16.53 12.615 16.8761 12.3718 17.2941C12.1286 17.712 12.0004 18.1869 12 18.6705V29.358C12.0004 29.8416 12.1287 30.3164 12.3719 30.7343C12.615 31.1522 12.9644 31.4984 13.3846 31.7376L22.6442 37.06C23.0591 37.2978 23.529 37.4229 24.0072 37.4229C24.4854 37.4229 24.9553 37.2978 25.3702 37.06L27.4471 35.8915L30.7355 37.7955C31.537 38.2609 32.8331 38.2609 33.6346 37.7955L36.1442 36.3242C36.9456 35.8589 36.9456 35.1452 36.1442 34.6801L32.8557 32.7763L34.6298 31.7376C35.0499 31.4984 35.3994 31.1522 35.6425 30.7343C35.8857 30.3164 36.014 29.8416 36.0144 29.358V18.6705C36.014 18.1869 35.8857 17.712 35.6426 17.2941C35.3994 16.8761 35.05 16.53 34.6298 16.2907L25.3702 10.9685C24.9769 10.7321 24.5306 10.5983 24.0721 10.5792C23.9856 10.5751 23.899 10.5751 23.8125 10.5792ZM23.8125 16.6369C23.8845 16.6317 23.9568 16.6317 24.0288 16.6369C24.2847 16.6312 24.5379 16.6907 24.7644 16.8098L29.8702 19.7523C30.0949 19.8862 30.2808 20.0763 30.4098 20.3039C30.5388 20.5315 30.6063 20.7887 30.6057 21.0503V26.9348C30.6139 27.2037 30.5501 27.47 30.4207 27.7058C30.2914 27.9416 30.1013 28.1386 29.8702 28.2762L24.7644 31.2185C24.5344 31.3521 24.2732 31.4224 24.0072 31.4224C23.7412 31.4224 23.48 31.3521 23.25 31.2185L18.1442 28.2762C17.9131 28.1386 17.723 27.9416 17.5937 27.7058C17.4643 27.47 17.4004 27.2037 17.4087 26.9348V21.0503C17.4081 20.7887 17.4756 20.5315 17.6046 20.3039C17.7336 20.0763 17.9195 19.8862 18.1442 19.7523L23.25 16.8098C23.4243 16.7158 23.6154 16.657 23.8125 16.6369Z" fill="white"/>
</svg>
