<svg width="33" height="32" viewBox="0 0 33 32" fill="none" xmlns="http://www.w3.org/2000/svg">
<path d="M2.70842 1H29.3751C30.2984 1 31.0418 1.74339 31.0418 2.66669V29.3333C31.0418 30.2567 30.2984 30.9999 29.3751 30.9999H2.70842C1.78509 30.9999 1.04175 30.2567 1.04175 29.3333V2.66669C1.04175 1.74339 1.78509 1 2.70842 1Z" fill="#3B82F6"/>
<path d="M15.9167 7.05283C15.6408 7.07916 15.3745 7.16787 15.1379 7.31234L8.96482 10.8605C8.68469 11.02 8.45174 11.2507 8.28962 11.5294C8.12751 11.808 8.04199 12.1246 8.04175 12.447V19.572C8.04201 19.8944 8.12753 20.2109 8.28965 20.4895C8.45177 20.7681 8.6847 20.9989 8.96482 21.1584L15.1379 24.7067C15.4145 24.8652 15.7277 24.9486 16.0465 24.9486C16.3653 24.9486 16.6786 24.8652 16.9552 24.7067L18.3398 23.9277L20.5321 25.197C21.0664 25.5073 21.9305 25.5073 22.4648 25.197L24.1379 24.2162C24.6722 23.906 24.6722 23.4302 24.1379 23.1201L21.9456 21.8509L23.1283 21.1584C23.4084 20.9989 23.6413 20.7681 23.8034 20.4895C23.9655 20.2109 24.0511 19.8944 24.0513 19.572V12.447C24.0511 12.1246 23.9656 11.808 23.8035 11.5294C23.6413 11.2507 23.4084 11.02 23.1283 10.8605L16.9552 7.31234C16.693 7.15475 16.3955 7.06555 16.0898 7.05283C16.0322 7.0501 15.9744 7.0501 15.9167 7.05283ZM15.9167 11.0913C15.9647 11.0878 16.0129 11.0878 16.061 11.0913C16.2316 11.0874 16.4003 11.1271 16.5514 11.2065L19.9552 13.1682C20.105 13.2575 20.229 13.3842 20.3149 13.5359C20.4009 13.6877 20.4459 13.8591 20.4456 14.0335V17.9566C20.451 18.1358 20.4085 18.3133 20.3222 18.4705C20.236 18.6278 20.1093 18.7591 19.9552 18.8508L16.5514 20.8124C16.398 20.9014 16.2239 20.9483 16.0465 20.9483C15.8692 20.9483 15.6951 20.9014 15.5417 20.8124L12.1379 18.8508C11.9838 18.7591 11.8571 18.6278 11.7709 18.4705C11.6846 18.3133 11.642 18.1358 11.6475 17.9566V14.0335C11.6472 13.8591 11.6922 13.6877 11.7781 13.5359C11.8641 13.3842 11.9881 13.2575 12.1379 13.1682L15.5417 11.2065C15.658 11.1439 15.7854 11.1047 15.9167 11.0913Z" fill="white"/>
</svg>
