<svg width="48" height="48" viewBox="0 0 48 48" fill="none" xmlns="http://www.w3.org/2000/svg">
<path d="M4 1.5H44C45.385 1.5 46.5 2.61508 46.5 4.00003V44C46.5 45.3851 45.385 46.4999 44 46.4999H4C2.61501 46.4999 1.5 45.3851 1.5 44V4.00003C1.5 2.61508 2.61501 1.5 4 1.5Z" fill="#22C55E"/>
<path d="M23.8121 10.5792C23.3982 10.6187 22.9987 10.7518 22.6438 10.9685L13.3842 16.2907C12.964 16.53 12.6146 16.8761 12.3714 17.2941C12.1283 17.712 12 18.1869 11.9996 18.6705V29.358C12 29.8416 12.1283 30.3164 12.3715 30.7343C12.6147 31.1522 12.9641 31.4984 13.3842 31.7376L22.6438 37.06C23.0587 37.2978 23.5286 37.4229 24.0068 37.4229C24.485 37.4229 24.9549 37.2978 25.3698 37.06L27.4467 35.8915L30.7352 37.7955C31.5366 38.2609 32.8328 38.2609 33.6342 37.7955L36.1438 36.3242C36.9453 35.8589 36.9453 35.1452 36.1438 34.6801L32.8554 32.7763L34.6294 31.7376C35.0496 31.4984 35.399 31.1522 35.6422 30.7343C35.8853 30.3164 36.0136 29.8416 36.014 29.358V18.6705C36.0137 18.1869 35.8854 17.712 35.6422 17.2941C35.399 16.8761 35.0496 16.53 34.6294 16.2907L25.3698 10.9685C24.9765 10.7321 24.5302 10.5983 24.0717 10.5792C23.9852 10.5751 23.8986 10.5751 23.8121 10.5792ZM23.8121 16.6369C23.8841 16.6317 23.9564 16.6317 24.0285 16.6369C24.2844 16.6312 24.5375 16.6907 24.764 16.8098L29.8698 19.7523C30.0945 19.8862 30.2805 20.0763 30.4094 20.3039C30.5384 20.5315 30.6059 20.7887 30.6054 21.0503V26.9348C30.6136 27.2037 30.5497 27.47 30.4204 27.7058C30.291 27.9416 30.1009 28.1386 29.8698 28.2762L24.764 31.2185C24.5341 31.3521 24.2728 31.4224 24.0068 31.4224C23.7409 31.4224 23.4796 31.3521 23.2496 31.2185L18.1439 28.2762C17.9127 28.1386 17.7226 27.9416 17.5933 27.7058C17.464 27.47 17.4001 27.2037 17.4083 26.9348V21.0503C17.4077 20.7887 17.4753 20.5315 17.6042 20.3039C17.7332 20.0763 17.9192 19.8862 18.1439 19.7523L23.2496 16.8098C23.4239 16.7158 23.6151 16.657 23.8121 16.6369Z" fill="white"/>
</svg>
