<svg width="48" height="48" viewBox="0 0 48 48" fill="none" xmlns="http://www.w3.org/2000/svg">
<path d="M45.0002 33.6785V14.3213C45.0002 12.8859 44.2311 11.5605 42.9847 10.8483L25.9846 1.13402C24.7548 0.431323 23.2452 0.431326 22.0155 1.13403L5.01544 10.8483C3.76914 11.5605 3 12.8859 3 14.3213V33.6785C3 35.114 3.76916 36.4393 5.01547 37.1515L22.0157 46.8657C23.2454 47.5684 24.755 47.5684 25.9847 46.8657L42.9848 37.1515C44.2311 36.4393 45.0002 35.114 45.0002 33.6785Z" fill="#171717"/>
<path d="M24 21L30.5001 25L37.0002 21V30.1966C37.0002 30.9143 36.6156 31.577 35.9925 31.9331L24.9924 38.2188C24.3776 38.5701 23.6228 38.5701 23.0079 38.2188L12.0077 31.9331C11.3846 31.577 11 30.9143 11 30.1966V21L17.5 25L24 21Z" fill="white"/>
<path d="M23.2929 15.7071C23.6834 15.3166 24.3166 15.3166 24.7071 15.7071L27.2929 18.2929C27.6834 18.6834 27.6834 19.3166 27.2929 19.7071L24.7071 22.2929C24.3166 22.6834 23.6834 22.6834 23.2929 22.2929L20.7071 19.7071C20.3166 19.3166 20.3166 18.6834 20.7071 18.2929L23.2929 15.7071Z" fill="white"/>
<path d="M11 16.2071C11 15.7617 11.5386 15.5386 11.8536 15.8536L14.2929 18.2929C14.6834 18.6834 14.6834 19.3166 14.2929 19.7071L11.8536 22.1464C11.5386 22.4614 11 22.2383 11 21.7929V16.2071Z" fill="white"/>
<path d="M37 21.7929C37 22.2383 36.4614 22.4614 36.1464 22.1464L33.7071 19.7071C33.3166 19.3166 33.3166 18.6834 33.7071 18.2929L36.1464 15.8536C36.4614 15.5386 37 15.7617 37 16.2071V21.7929Z" fill="white"/>
</svg>
