<?xml version="1.0" encoding="UTF-8"?>
<svg width="48px" height="48px" viewBox="0 0 48 48" version="1.1" xmlns="http://www.w3.org/2000/svg" xmlns:xlink="http://www.w3.org/1999/xlink">
    <title>Vector Perfect Qute Qube</title>
    <defs>
        <polygon id="path-1" points="0.264506174 0.398583241 40.0936 0.398583241 40.0936 46 0.264506174 46"></polygon>
        <polygon id="path-3" points="0 0.361 40.9599938 0.361 40.9599938 45.9620167 0 45.9620167"></polygon>
        <polygon id="path-5" points="0 0.0254 20.6328606 0.0254 20.6328606 33.9504 0 33.9504"></polygon>
    </defs>
    <g id="Vector-Perfect-Qute-Qube" stroke="none" stroke-width="1" fill="none" fill-rule="evenodd">
        <rect id="Rectangle" x="0" y="0" width="48" height="48"></rect>
        <g id="FromIllustrator" transform="translate(3.000000, 0.000000)">
            <g id="Shado" transform="translate(2.000000, 0.639500)">
                <mask id="mask-2" fill="white">
                    <use xlink:href="#path-1"></use>
                </mask>
                <g id="Clip-2"></g>
                <path d="M18.8596,0.9446 L10.6366,5.6916 L2.4146,10.4396 C1.7876,10.8006 1.2796,11.3156 0.9276,11.9216 C0.5766,12.5266 0.3806,13.2216 0.3756,13.9456 L0.3196,23.2956 L0.264506174,32.6456 C0.2596,33.3826 0.4546,34.0916 0.8106,34.7086 C1.1666,35.3246 1.6836,35.8476 2.3236,36.2126 L10.4486,40.8396 L18.5736,45.4656 C19.2026,45.8246 19.9036,46.0026 20.6036,46.0006167 C21.3036,45.9986 22.0026,45.8156 22.6296,45.4536 L30.2856,40.9326 L37.9426,36.4126 C38.5686,36.0496 39.1046,35.4506 39.4846,34.7606 C39.8646,34.0706 40.0886,33.2906 40.0936,32.5656 L40.0926,23.2156 L40.0916,13.8666 C40.0956,13.1296 39.9576,12.2786 39.6586,11.5196 C39.3596,10.7616 38.8996,10.0966 38.2586,9.7326 L30.5876,5.3326 L22.9156,0.9326 C22.2866,0.5736 21.5856,0.3966 20.8856,0.398583241 C20.1856,0.4006 19.4866,0.5826 18.8596,0.9446" id="Fill-1" fill="#34373A" mask="url(#mask-2)"></path>
            </g>
            <g id="Main" transform="translate(0.000000, 0.639500)">
                <mask id="mask-4" fill="white">
                    <use xlink:href="#path-3"></use>
                </mask>
                <g id="Clip-5"></g>
                <path d="M18.5949,0.907 L10.3719,5.655 L2.1499,10.402 C1.5229,10.764 1.0149,11.279 0.6639,11.883 C0.3119,12.489 0.1159,13.184 0.1119,13.907 L0.0559,23.258 L-0.000160643214,32.608 C-0.0041,33.345 0.1899,34.054 0.5459,34.67 C0.9019,35.286 1.4189,35.81 2.0589,36.175 L10.1839,40.801 L18.3099,45.428 C18.9389,45.786 19.6389,45.964 20.3389,45.9620167 C21.0389,45.96 21.7389,45.778 22.3659,45.416 L30.5879,40.668 L38.8109,35.921 C39.4379,35.56 39.9449,35.045 40.2969,34.44 C40.6489,33.834 40.8449,33.139 40.8489,32.415 L40.9049,23.065 L40.9599938,13.715 C40.9649,12.978 40.7699,12.269 40.4139,11.653 C40.0579,11.036 39.5409,10.513 38.9009,10.149 L30.7759,5.522 L22.6509,0.895 C22.0219,0.536 21.3219,0.359 20.6209,0.360983241 C19.9219,0.363 19.2219,0.545 18.5949,0.907" id="Fill-4" fill="#B4BBC1" mask="url(#mask-4)"></path>
            </g>
            <g id="Side" transform="translate(0.000000, 12.639500)">
                <mask id="mask-6" fill="white">
                    <use xlink:href="#path-5"></use>
                </mask>
                <g id="Clip-8"></g>
                <path d="M0.5988,0.0344 C0.9048,0.0544 1.1978,0.1064 1.4838,0.1934 C1.7698,0.2804 2.0488,0.4024 2.3238,0.5584 L10.4488,5.1854 L18.5738,9.8124 C19.2138,10.1774 19.7308,10.7004 20.0868,11.3164 C20.4428,11.9324 20.6368,12.6424 20.6328606,13.3794 L20.5778,22.7294 L20.5218,32.0794 C20.5198,32.4114 20.4768,32.7364 20.3978,33.0514 C20.3188,33.3644 20.2028,33.6674 20.0538,33.9504 L19.9338,33.9404 L19.8148,33.9304 C19.5548,33.8964 19.2958,33.8394 19.0438,33.7554 C18.7908,33.6714 18.5458,33.5624 18.3098,33.4284 L10.1838,28.8014 L2.0588,24.1754 C1.4188,23.8094 0.9018,23.2864 0.5458,22.6704 C0.1898,22.0544 -0.0042,21.3454 -0.000260643214,20.6074 L0.0558,11.2584 L0.1118,1.9074 C0.1138,1.5464 0.1448,1.2264 0.2198,0.9224 C0.2948,0.6174 0.4138,0.3274 0.5898,0.0254 L0.5938,0.0294 L0.5988,0.0344 Z" id="Fill-7" fill="#34373A" mask="url(#mask-6)"></path>
            </g>
        </g>
    </g>
</svg>