<svg width="48" height="48" viewBox="0 0 48 48" fill="none" xmlns="http://www.w3.org/2000/svg">
<path d="M45.0002 33.6788V14.3215C45.0002 12.8861 44.2311 11.5607 42.9847 10.8486L25.9846 1.13426C24.7548 0.431567 23.2452 0.43157 22.0155 1.13427L5.01544 10.8486C3.76914 11.5607 3 12.8861 3 14.3215V33.6788C3 35.1142 3.76916 36.4396 5.01547 37.1518L22.0157 46.866C23.2454 47.5687 24.755 47.5687 25.9847 46.866L42.9848 37.1518C44.2311 36.4396 45.0002 35.1142 45.0002 33.6788Z" fill="#DC2626"/>
<path d="M45.0002 33.6788V14.3215C45.0002 12.8861 44.2311 11.5607 42.9847 10.8486L25.9846 1.13426C24.7548 0.431567 23.2452 0.43157 22.0155 1.13427L5.01544 10.8486C3.76914 11.5607 3 12.8861 3 14.3215V33.6788C3 35.1142 3.76916 36.4396 5.01547 37.1518L22.0157 46.866C23.2454 47.5687 24.755 47.5687 25.9847 46.866L42.9848 37.1518C44.2311 36.4396 45.0002 35.1142 45.0002 33.6788Z" fill="#525252"/>
<path d="M3 33.6788C3 35.1142 3.76915 36.4396 5.01546 37.1518L22.055 46.8886C22.9217 47.3838 24 46.758 24 45.7599V26.3215C24 24.886 23.2308 23.5606 21.9845 22.8485L4.94498 13.1117C4.07832 12.6164 3 13.2422 3 14.2404V33.6788Z" fill="#171717"/>
</svg>
