<?xml version="1.0" encoding="UTF-8" standalone="no"?>
<svg
   width="22"
   height="23"
   viewBox="0 0 22 23"
   fill="none"
   version="1.1"
   id="svg22"
   sodipodi:docname="new-qube-program-icon.svg"
   inkscape:version="1.1.2 (0a00cf5339, 2022-02-04)"
   xmlns:inkscape="http://www.inkscape.org/namespaces/inkscape"
   xmlns:sodipodi="http://sodipodi.sourceforge.net/DTD/sodipodi-0.dtd"
   xmlns="http://www.w3.org/2000/svg"
   xmlns:svg="http://www.w3.org/2000/svg"
   xmlns:rdf="http://www.w3.org/1999/02/22-rdf-syntax-ns#"
   xmlns:cc="http://creativecommons.org/ns#"
   xmlns:dc="http://purl.org/dc/elements/1.1/">
  <metadata
     id="metadata26">
    <rdf:RDF>
      <cc:Work
         rdf:about="">
        <dc:format>image/svg+xml</dc:format>
        <dc:type
           rdf:resource="http://purl.org/dc/dcmitype/StillImage" />
        <dc:title />
      </cc:Work>
    </rdf:RDF>
  </metadata>
  <sodipodi:namedview
     inkscape:document-rotation="0"
     pagecolor="#ffffff"
     bordercolor="#666666"
     borderopacity="1"
     objecttolerance="10"
     gridtolerance="10"
     guidetolerance="10"
     inkscape:pageopacity="0"
     inkscape:pageshadow="2"
     inkscape:window-width="1280"
     inkscape:window-height="677"
     id="namedview24"
     showgrid="false"
     inkscape:zoom="5.478261"
     inkscape:cx="24.186507"
     inkscape:cy="24.003968"
     inkscape:window-x="0"
     inkscape:window-y="43"
     inkscape:window-maximized="1"
     inkscape:current-layer="svg22"
     inkscape:pagecheckerboard="0" />
  <path
     id="rect8927"
     style="fill:#4488df;fill-opacity:1;stroke:none;stroke-width:0.916841;stroke-linecap:round;stroke-linejoin:round"
     d="M 10.152827,1.3787529 C 9.7287269,1.3622499 9.3212674,1.4687109 8.9590176,1.6584914 L 1.3168123,5.7929917 C 0.87504659,6.0240361 0.60170669,6.4031631 0.40732973,6.8239776 L 7.4225571,10.611882 c 1.2811208,0.693161 2.0668402,1.956047 2.0668402,3.333991 v 8.043801 c 0.5742867,0.156739 1.1928187,0.156843 1.7405927,-0.131951 l 7.644028,-4.13274 c 0.698017,-0.379595 1.130019,-1.081845 1.130019,-1.824459 V 7.6244873 c 0,-0.7591256 -0.432002,-1.4519284 -1.130019,-1.8314956 L 11.22999,1.6584914 C 10.903098,1.485213 10.532724,1.3870042 10.152827,1.3787529 Z" />
  <path
     id="Fill 3"
     fill-rule="evenodd"
     clip-rule="evenodd"
     d="m 0.40732973,15.946512 c 0,0.758198 0.43424156,1.466402 1.13434137,1.8496 l 7.6656998,4.174185 c 0.1683824,0.08332 0.345621,0.08332 0.531724,0.12494 V 13.98026 c 0,-1.391364 -0.7887208,-2.674454 -2.0737235,-3.374281 L 0.40732973,6.8245226 c -0.10634479,0.2666078 0,0.4821226 0,0.765395 z"
     fill="#0e2276"
     sodipodi:nodetypes="scccsccss"
     style="stroke-width:0.916841" />
  <defs
     id="defs20">
    <filter
       id="filter0_d_0_17586"
       x="0"
       y="0"
       width="22"
       height="23"
       filterUnits="userSpaceOnUse"
       color-interpolation-filters="sRGB">
      <feFlood
         flood-opacity="0"
         result="BackgroundImageFix"
         id="feFlood7" />
      <feColorMatrix
         in="SourceAlpha"
         type="matrix"
         values="0 0 0 0 0 0 0 0 0 0 0 0 0 0 0 0 0 0 127 0"
         result="hardAlpha"
         id="feColorMatrix9" />
      <feOffset
         dx="1"
         id="feOffset11" />
      <feColorMatrix
         type="matrix"
         values="0 0 0 0 0.0627451 0 0 0 0 0.0980392 0 0 0 0 0.419608 0 0 0 1 0"
         id="feColorMatrix13" />
      <feBlend
         mode="normal"
         in2="BackgroundImageFix"
         result="effect1_dropShadow_0_17586"
         id="feBlend15" />
      <feBlend
         mode="normal"
         in="SourceGraphic"
         in2="effect1_dropShadow_0_17586"
         result="shape"
         id="feBlend17" />
    </filter>
  </defs>
  <path
     id="rect62676"
     style="fill:#fcfdff;fill-opacity:1;stroke:#0e2276;stroke-width:0.83776;stroke-linecap:round;stroke-linejoin:round;stroke-miterlimit:4;stroke-dasharray:none;stroke-opacity:1"
     d="m 14.262196,10.843135 v 3.462679 h -3.565778 v 3.675472 h 3.565778 v 3.46268 h 3.786665 v -3.46268 h 3.567438 v -3.675472 h -3.567438 v -3.462679 z" />
</svg>
