<svg width="12" height="13" viewBox="0 0 12 13" fill="none" xmlns="http://www.w3.org/2000/svg">
<path fill-rule="evenodd" clip-rule="evenodd" d="M10.048 6.5625C10.048 6.75801 10.0367 6.94167 10.0142 7.1194L11.1443 8.05547C11.2511 8.13841 11.2792 8.28652 11.2118 8.41686L10.1323 10.3838C10.0648 10.5141 9.92429 10.5615 9.8006 10.5141L8.4569 9.94538C8.18141 10.1705 7.87781 10.3601 7.5461 10.5023L7.3437 12.0071C7.32684 12.1493 7.21439 12.25 7.07946 12.25H4.92054C4.78561 12.25 4.67879 12.1493 4.65067 12.0071L4.44828 10.5023C4.11657 10.3601 3.81859 10.1705 3.53748 9.94538L2.19378 10.5141C2.07009 10.5556 1.92954 10.5141 1.86207 10.3838L0.782609 8.41686C0.720765 8.29837 0.748876 8.13841 0.850075 8.05547L1.99138 7.1194C1.96327 6.94167 1.95202 6.74616 1.95202 6.5625C1.95202 6.37884 1.97451 6.18333 2.00262 6.0056L0.86132 5.06953C0.748876 4.98659 0.726387 4.83255 0.793853 4.70814L1.86769 2.74121C1.93516 2.61087 2.07571 2.56348 2.1994 2.61087L3.5431 3.17962C3.81859 2.96042 4.12219 2.76491 4.4539 2.62272L4.6563 1.1179C4.67879 0.975716 4.78561 0.875 4.92054 0.875H7.07946C7.21439 0.875 7.32684 0.975716 7.34933 1.1179L7.55172 2.62272C7.88343 2.76491 8.18141 2.95449 8.46252 3.17962L9.80622 2.61087C9.92991 2.5694 10.0705 2.61087 10.1379 2.74121L11.2174 4.70814C11.2792 4.82663 11.2511 4.98659 11.1499 5.06953L10.0086 6.0056C10.0367 6.18333 10.048 6.37292 10.048 6.5625ZM3.97601 6.5625C3.97601 7.73555 4.88681 8.69531 6 8.69531C7.11319 8.69531 8.02399 7.73555 8.02399 6.5625C8.02399 5.38945 7.11319 4.42969 6 4.42969C4.88681 4.42969 3.97601 5.38945 3.97601 6.5625Z" fill="#707070"/>
</svg>
