<?xml version="1.0" encoding="UTF-8" standalone="no"?>
<svg
   xmlns:dc="http://purl.org/dc/elements/1.1/"
   xmlns:cc="http://creativecommons.org/ns#"
   xmlns:rdf="http://www.w3.org/1999/02/22-rdf-syntax-ns#"
   xmlns:svg="http://www.w3.org/2000/svg"
   xmlns="http://www.w3.org/2000/svg"
   xmlns:sodipodi="http://sodipodi.sourceforge.net/DTD/sodipodi-0.dtd"
   xmlns:inkscape="http://www.inkscape.org/namespaces/inkscape"
   width="13"
   height="13"
   viewBox="0 0 13 13"
   fill="none"
   version="1.1"
   id="svg911"
   sodipodi:docname="CHelp2.svg"
   inkscape:version="1.0.2 (e86c870879, 2021-01-15)">
  <metadata
     id="metadata917">
    <rdf:RDF>
      <cc:Work
         rdf:about="">
        <dc:format>image/svg+xml</dc:format>
        <dc:type
           rdf:resource="http://purl.org/dc/dcmitype/StillImage" />
        <dc:title></dc:title>
      </cc:Work>
    </rdf:RDF>
  </metadata>
  <defs
     id="defs915" />
  <sodipodi:namedview
     pagecolor="#ffffff"
     bordercolor="#666666"
     borderopacity="1"
     objecttolerance="10"
     gridtolerance="10"
     guidetolerance="10"
     inkscape:pageopacity="0"
     inkscape:pageshadow="2"
     inkscape:window-width="1280"
     inkscape:window-height="677"
     id="namedview913"
     showgrid="false"
     inkscape:zoom="37.461538"
     inkscape:cx="6.5"
     inkscape:cy="6.5"
     inkscape:window-x="0"
     inkscape:window-y="43"
     inkscape:window-maximized="1"
     inkscape:current-layer="svg911" />
  <path
     d="M1.3 2.6001H0V11.7001C0 12.4151 0.585 13.0001 1.3 13.0001H10.4V11.7001H1.3V2.6001Z"
     fill="#5FB8DB"
     id="path907"
     style="fill:#e8e8e8;fill-opacity:1" />
  <rect
     style="fill:#4180c9;fill-opacity:1;stroke:none;stroke-width:2.13543;stroke-linecap:round;stroke-linejoin:round"
     id="rect919"
     width="6.5266938"
     height="7.701232"
     x="4.5246406"
     y="1.241273" />
  <path
     fill-rule="evenodd"
     clip-rule="evenodd"
     d="M11.7007 0H3.90071C3.18571 0 2.60071 0.585 2.60071 1.3V9.1C2.60071 9.815 3.18571 10.4 3.90071 10.4H11.7007C12.4157 10.4 13.0007 9.815 13.0007 9.1V1.3C13.0007 0.585 12.4157 0 11.7007 0ZM7.80673 8.4501C7.42323 8.4501 7.12423 8.1446 7.12423 7.7676C7.12423 7.3841 7.42973 7.0916 7.80673 7.0916C8.19023 7.0916 8.48273 7.3841 8.48273 7.7676C8.47623 8.1446 8.19023 8.4501 7.80673 8.4501ZM8.83434 5.12501C9.01397 4.95131 9.22031 4.75178 9.43186 4.4395C9.80236 3.8935 9.66586 3.1655 9.42536 2.769C9.14586 2.314 8.59336 1.95 7.79386 1.95C6.83836 1.95 6.18186 2.574 5.93486 3.3085L6.82536 3.679C6.94236 3.315 7.22836 2.8795 7.80036 2.8795C8.67786 2.8795 8.85336 3.6985 8.54136 4.1405C8.41143 4.3253 8.24045 4.48316 8.06716 4.64314C7.85037 4.8433 7.62997 5.04678 7.48186 5.3105C7.30047 5.6336 7.30692 6.00613 7.31154 6.2729C7.31222 6.31204 7.31286 6.3489 7.31286 6.383H8.30086C8.30086 5.876 8.33336 5.772 8.41786 5.616C8.52155 5.42747 8.66625 5.28755 8.83434 5.12501Z"
     fill="#4180C9"
     id="path909"
     style="fill:#ffffff;fill-opacity:1" />
</svg>
