<svg width="12" height="14" viewBox="0 0 12 14" fill="none" xmlns="http://www.w3.org/2000/svg">
<g clip-path="url(#clip0_352_6847)">
<path d="M9.82258 5.98387C9.82258 5.87097 9.82258 5.87097 9.82258 5.98387V3.16129C9.82258 1.35484 8.35484 0 6.66129 0H5.19355C3.5 0 2.14516 1.35484 2.14516 3.16129V5.87097C2.14516 5.87097 2.14516 5.87097 2.14516 5.98387H0V14H11.8548V5.98387H9.82258ZM3.83871 5.87097V3.16129C3.83871 2.37097 4.51613 1.80645 5.19355 1.80645H6.66129C7.45161 1.80645 8.01613 2.48387 8.01613 3.16129V5.87097C8.01613 5.87097 8.01613 5.87097 8.01613 5.98387L3.83871 5.87097Z" fill="black"/>
</g>
<defs>
<clipPath id="clip0_352_6847">
<rect width="11.8548" height="14" fill="white"/>
</clipPath>
</defs>
</svg>
