<svg width="24" height="23" viewBox="0 0 24 23" fill="none" xmlns="http://www.w3.org/2000/svg">
<mask id="mask0_1661_7518" style="mask-type:luminance" maskUnits="userSpaceOnUse" x="0" y="0" width="21" height="23">
<path fill-rule="evenodd" clip-rule="evenodd" d="M0 0H21V23H0V0Z" fill="white"/>
</mask>
<g mask="url(#mask0_1661_7518)">
<mask id="path-2-inside-1_1661_7518" fill="white">
<path fill-rule="evenodd" clip-rule="evenodd" d="M6.03264 7.39537H6.06725C6.06725 5.06341 7.99875 3.17293 10.3844 3.17293C12.7673 3.17293 14.7015 5.06341 14.7015 7.39537H14.7348V9.80317H6.03264V7.39537ZM18.2613 9.8939V7.61205H18.2585C18.2087 3.39908 14.7043 0 10.3844 0C6.06448 0 2.55871 3.39908 2.50887 7.61205H2.5061V9.8939H0V23H21V9.8939H18.2613Z"/>
</mask>
<path fill-rule="evenodd" clip-rule="evenodd" d="M6.03264 7.39537H6.06725C6.06725 5.06341 7.99875 3.17293 10.3844 3.17293C12.7673 3.17293 14.7015 5.06341 14.7015 7.39537H14.7348V9.80317H6.03264V7.39537ZM18.2613 9.8939V7.61205H18.2585C18.2087 3.39908 14.7043 0 10.3844 0C6.06448 0 2.55871 3.39908 2.50887 7.61205H2.5061V9.8939H0V23H21V9.8939H18.2613Z" fill="#2F80ED"/>
<path d="M6.03264 7.39537V6.89537H5.53264V7.39537H6.03264ZM6.06725 7.39537V7.89537H6.56725V7.39537H6.06725ZM14.7015 7.39537H14.2015V7.89537H14.7015V7.39537ZM14.7348 7.39537H15.2348V6.89537H14.7348V7.39537ZM14.7348 9.80317V10.3032H15.2348V9.80317H14.7348ZM6.03264 9.80317H5.53264V10.3032H6.03264V9.80317ZM18.2613 9.8939H17.7613V10.3939H18.2613V9.8939ZM18.2613 7.61205H18.7613V7.11205H18.2613V7.61205ZM18.2585 7.61205L17.7586 7.61796L17.7644 8.11205H18.2585V7.61205ZM2.50887 7.61205V8.11205H3.00299L3.00883 7.61796L2.50887 7.61205ZM2.5061 7.61205V7.11205H2.0061V7.61205H2.5061ZM2.5061 9.8939V10.3939H3.0061V9.8939H2.5061ZM0 9.8939V9.3939H-0.5V9.8939H0ZM0 23H-0.5V23.5H0V23ZM21 23V23.5H21.5V23H21ZM21 9.8939H21.5V9.3939H21V9.8939ZM6.03264 7.89537H6.06725V6.89537H6.03264V7.89537ZM6.56725 7.39537C6.56725 5.34985 8.26448 3.67293 10.3844 3.67293V2.67293C7.73301 2.67293 5.56725 4.77698 5.56725 7.39537H6.56725ZM10.3844 3.67293C12.5017 3.67293 14.2015 5.35005 14.2015 7.39537H15.2015C15.2015 4.77677 13.0328 2.67293 10.3844 2.67293V3.67293ZM14.7015 7.89537H14.7348V6.89537H14.7015V7.89537ZM14.2348 7.39537V9.80317H15.2348V7.39537H14.2348ZM14.7348 9.30317H6.03264V10.3032H14.7348V9.30317ZM6.53264 9.80317V7.39537H5.53264V9.80317H6.53264ZM18.7613 9.8939V7.61205H17.7613V9.8939H18.7613ZM18.2613 7.11205H18.2585V8.11205H18.2613V7.11205ZM18.7585 7.60613C18.7053 3.10957 14.9682 -0.5 10.3844 -0.5V0.5C14.4403 0.5 17.7121 3.68859 17.7586 7.61796L18.7585 7.60613ZM10.3844 -0.5C5.80065 -0.5 2.0621 3.10946 2.0089 7.60613L3.00883 7.61796C3.05532 3.68871 6.32832 0.5 10.3844 0.5V-0.5ZM2.50887 7.11205H2.5061V8.11205H2.50887V7.11205ZM2.0061 7.61205V9.8939H3.0061V7.61205H2.0061ZM2.5061 9.3939H0V10.3939H2.5061V9.3939ZM-0.5 9.8939V23H0.5V9.8939H-0.5ZM0 23.5H21V22.5H0V23.5ZM21.5 23V9.8939H20.5V23H21.5ZM21 9.3939H18.2613V10.3939H21V9.3939Z" fill="#1265D3" mask="url(#path-2-inside-1_1661_7518)"/>
</g>
<g filter="url(#filter0_i_1661_7518)">
<path d="M3.98527 20.7843L5.17037 16.1133L8.58432 19.345L3.98527 20.7843Z" fill="#F2F2F2"/>
</g>
<path d="M8.39181 19.3005L4.12621 20.6354L5.22538 16.3031L8.39181 19.3005Z" stroke="#4F4F4F" stroke-width="0.2"/>
<g filter="url(#filter1_i_1661_7518)">
<rect x="19.3253" y="1.24487" width="4.61842" height="19.478" transform="rotate(43.6296 19.3253 1.24487)" fill="#BDBDBD"/>
</g>
<rect x="19.3287" y="1.38625" width="4.41843" height="19.278" transform="rotate(43.6296 19.3287 1.38625)" stroke="#4F4F4F" stroke-width="0.2"/>
<defs>
<filter id="filter0_i_1661_7518" x="2.98526" y="16.1133" width="5.59906" height="5.67114" filterUnits="userSpaceOnUse" color-interpolation-filters="sRGB">
<feFlood flood-opacity="0" result="BackgroundImageFix"/>
<feBlend mode="normal" in="SourceGraphic" in2="BackgroundImageFix" result="shape"/>
<feColorMatrix in="SourceAlpha" type="matrix" values="0 0 0 0 0 0 0 0 0 0 0 0 0 0 0 0 0 0 127 0" result="hardAlpha"/>
<feOffset dx="-1" dy="1"/>
<feGaussianBlur stdDeviation="1"/>
<feComposite in2="hardAlpha" operator="arithmetic" k2="-1" k3="1"/>
<feColorMatrix type="matrix" values="0 0 0 0 0 0 0 0 0 0 0 0 0 0 0 0 0 0 0.25 0"/>
<feBlend mode="normal" in2="shape" result="effect1_innerShadow_1661_7518"/>
</filter>
<filter id="filter1_i_1661_7518" x="5.88565" y="1.24487" width="16.7826" height="19.2852" filterUnits="userSpaceOnUse" color-interpolation-filters="sRGB">
<feFlood flood-opacity="0" result="BackgroundImageFix"/>
<feBlend mode="normal" in="SourceGraphic" in2="BackgroundImageFix" result="shape"/>
<feColorMatrix in="SourceAlpha" type="matrix" values="0 0 0 0 0 0 0 0 0 0 0 0 0 0 0 0 0 0 127 0" result="hardAlpha"/>
<feOffset dy="2"/>
<feGaussianBlur stdDeviation="2"/>
<feComposite in2="hardAlpha" operator="arithmetic" k2="-1" k3="1"/>
<feColorMatrix type="matrix" values="0 0 0 0 0.0205889 0 0 0 0 0.0836552 0 0 0 0 0.206078 0 0 0 0.46 0"/>
<feBlend mode="normal" in2="shape" result="effect1_innerShadow_1661_7518"/>
</filter>
</defs>
</svg>
