<?xml version="1.0" encoding="UTF-8" standalone="no"?>
<!-- Created with Inkscape (http://www.inkscape.org/) -->

<svg
   xmlns:dc="http://purl.org/dc/elements/1.1/"
   xmlns:cc="http://creativecommons.org/ns#"
   xmlns:rdf="http://www.w3.org/1999/02/22-rdf-syntax-ns#"
   xmlns:svg="http://www.w3.org/2000/svg"
   xmlns="http://www.w3.org/2000/svg"
   xmlns:xlink="http://www.w3.org/1999/xlink"
   xmlns:inkscape="http://www.inkscape.org/namespaces/inkscape"
   version="1.1"
   width="32"
   height="32"
   id="svg4100">
  <defs
     id="defs4102">
    <linearGradient
       x1="-98.616142"
       y1="1054.2002"
       x2="-98.616142"
       y2="1027.6669"
       id="linearGradient3947"
       xlink:href="#linearGradient3077"
       gradientUnits="userSpaceOnUse"
       gradientTransform="matrix(1,0,0,0.93313954,-52.142857,70.5295)" />
    <linearGradient
       id="linearGradient3077">
      <stop
         id="stop3079"
         style="stop-color:#000000;stop-opacity:1"
         offset="0" />
      <stop
         id="stop3081"
         style="stop-color:#000000;stop-opacity:0"
         offset="1" />
    </linearGradient>
    <linearGradient
       x1="-68.955505"
       y1="-1036.4513"
       x2="-29.661983"
       y2="-1036.4513"
       id="linearGradient3949"
       xlink:href="#linearGradient3921"
       gradientUnits="userSpaceOnUse"
       gradientTransform="matrix(0.09678167,0,0,0.95555466,1031.3584,1136.5913)" />
    <linearGradient
       id="linearGradient3921">
      <stop
         id="stop3923"
         style="stop-color:#ffffff;stop-opacity:1"
         offset="0" />
      <stop
         id="stop3925"
         style="stop-color:#ffffff;stop-opacity:0"
         offset="1" />
    </linearGradient>
    <linearGradient
       x1="-98.616142"
       y1="1054.2002"
       x2="-98.616142"
       y2="1027.6669"
       id="linearGradient3947-5"
       xlink:href="#linearGradient3077-2"
       gradientUnits="userSpaceOnUse"
       gradientTransform="matrix(1,0,0,0.93313954,-52.142857,70.5295)" />
    <linearGradient
       id="linearGradient3077-2">
      <stop
         id="stop3079-3"
         style="stop-color:#000000;stop-opacity:1"
         offset="0" />
      <stop
         id="stop3081-1"
         style="stop-color:#000000;stop-opacity:0"
         offset="1" />
    </linearGradient>
    <linearGradient
       x1="-68.955505"
       y1="-1036.4513"
       x2="-29.661983"
       y2="-1036.4513"
       id="linearGradient3949-6"
       xlink:href="#linearGradient3921-8"
       gradientUnits="userSpaceOnUse"
       gradientTransform="matrix(0.09678167,0,0,0.95555466,1031.3584,1136.5913)" />
    <linearGradient
       id="linearGradient3921-8">
      <stop
         id="stop3923-8"
         style="stop-color:#ffffff;stop-opacity:1"
         offset="0" />
      <stop
         id="stop3925-2"
         style="stop-color:#ffffff;stop-opacity:0"
         offset="1" />
    </linearGradient>
    <linearGradient
       x1="-98.616142"
       y1="1054.2002"
       x2="-98.616142"
       y2="1027.6669"
       id="linearGradient4230"
       xlink:href="#linearGradient3077-2"
       gradientUnits="userSpaceOnUse"
       gradientTransform="matrix(1,0,0,0.93313954,-52.142857,70.5295)" />
    <linearGradient
       x1="-68.955505"
       y1="-1036.4513"
       x2="-29.661983"
       y2="-1036.4513"
       id="linearGradient4232"
       xlink:href="#linearGradient3921-8"
       gradientUnits="userSpaceOnUse"
       gradientTransform="matrix(0.09678167,0,0,0.95555466,1031.3584,1136.5913)" />
    <linearGradient
       x1="-98.616142"
       y1="1054.2002"
       x2="-98.616142"
       y2="1027.6669"
       id="linearGradient4253"
       xlink:href="#linearGradient3077-2"
       gradientUnits="userSpaceOnUse"
       gradientTransform="matrix(1,0,0,0.93313954,-52.142857,70.5295)" />
    <linearGradient
       x1="-68.955505"
       y1="-1036.4513"
       x2="-29.661983"
       y2="-1036.4513"
       id="linearGradient4255"
       xlink:href="#linearGradient3921-8"
       gradientUnits="userSpaceOnUse"
       gradientTransform="matrix(0.09678167,0,0,0.95555466,1031.3584,1136.5913)" />
    <linearGradient
       x1="-68.955505"
       y1="-1036.4513"
       x2="-29.661983"
       y2="-1036.4513"
       id="linearGradient4262"
       xlink:href="#linearGradient3921-8"
       gradientUnits="userSpaceOnUse"
       gradientTransform="matrix(0,0.09453088,-0.93333242,0,-951.35362,1028.3903)" />
    <linearGradient
       x1="-98.616142"
       y1="1054.2002"
       x2="-98.616142"
       y2="1027.6669"
       id="linearGradient4265"
       xlink:href="#linearGradient3077-2"
       gradientUnits="userSpaceOnUse"
       gradientTransform="matrix(0.97674415,0,0,0.91143808,107.87505,89.90681)" />
  </defs>
  <metadata
     id="metadata4105">
    <rdf:RDF>
      <cc:Work
         rdf:about="">
        <dc:format>image/svg+xml</dc:format>
        <dc:type
           rdf:resource="http://purl.org/dc/dcmitype/StillImage" />
        <dc:title />
      </cc:Work>
    </rdf:RDF>
  </metadata>
  <g
     transform="translate(0,-1020.3609)"
     id="layer1">
    <path
       d="M 4.4842528e-7,1020.3609 32,1020.3609 l 0,32 -31.99999955157472,0 z"
       inkscape:connector-curvature="0"
       id="rect3955"
       style="opacity:0.4;fill:none;stroke:none" />
    <g
       id="g3013">
      <path
         d="m 3.393489,1022.1115 26.666667,0 c 0.923333,0 1.666666,0.7433 1.666666,1.6667 l 0,26.6666 c 0,0.9234 -0.743333,1.6667 -1.666666,1.6667 l -26.666667,0 c -0.9233333,0 -1.6666666,-0.7433 -1.6666666,-1.6667 l 0,-26.6666 c 0,-0.9234 0.7433333,-1.6667 1.6666666,-1.6667 z"
         inkscape:connector-curvature="0"
         id="rect3974"
         style="opacity:0.4;fill:#000000;fill-opacity:1;fill-rule:nonzero;stroke:none" />
      <path
         d="m 2.6666718,1021.361 26.6666682,0 c 0.923336,0 1.666668,0.7434 1.666668,1.6667 l 0,26.6666 c 0,0.9234 -0.743332,1.6667 -1.666668,1.6667 l -26.6666682,0 c -0.923326,0 -1.6666674,-0.7433 -1.6666674,-1.6667 l 0,-26.6666 c 0,-0.9233 0.7433414,-1.6667 1.6666674,-1.6667 z"
         inkscape:connector-curvature="0"
         id="rect3089"
         style="fill:#ebb32e;fill-opacity:1;fill-rule:nonzero;stroke:none" />
      <path
         d="m 2.5552448,1023.3668 26.8895322,0 c 0.861596,0 1.555231,0.6937 1.555231,1.5553 l 0,24.8837 c 0,0.8616 -0.693635,1.5552 -1.555231,1.5552 l -26.8895322,0 c -0.8616055,0 -1.5552404,-0.6936 -1.5552404,-1.5552 l 0,-24.8837 c 0,-0.8616 0.6936349,-1.5553 1.5552404,-1.5553 z"
         inkscape:connector-curvature="0"
         id="rect3091"
         style="opacity:0.4;fill:url(#linearGradient4265);fill-opacity:1;fill-rule:nonzero;stroke:none" />
      <path
         d="m 30.333321,1023.1324 0,0.7049 c 0,0.609 -0.490277,1.0992 -1.099267,1.0992 l -26.4681157,0 c -0.6089902,0 -1.0992572,-0.4902 -1.0992572,-1.0992 l 0,-0.7049 c 0,-0.609 0.490267,-1.0992 1.0992572,-1.0992 l 26.4681157,0 c 0.60899,0 1.099267,0.4902 1.099267,1.0992 z"
         inkscape:connector-curvature="0"
         id="rect3093"
         style="opacity:0.2;fill:url(#linearGradient4262);fill-opacity:1;fill-rule:nonzero;stroke:none" />
      <path
         d="m 15.664294,1026.0742 a 1.9436173,1.9436162 0 0 0 -0.824128,0.2748 l -6.5930228,3.7849 a 1.9436173,1.9436162 0 0 0 -0.9767441,1.6787 l 0,7.5698 a 1.9436173,1.9436162 0 0 0 0.7936046,1.5567 1.9021272,1.9021261 0 0 1 -0.4273256,-1.2209 l 0,-7.4172 a 1.9021272,1.9021261 0 0 1 0.9462209,-1.6483 l 6.440407,-3.6932 a 1.9021272,1.9021261 0 0 1 0.793604,-0.2748 1.9021272,1.9021261 0 0 1 0.18314,0 1.9021272,1.9021261 0 0 1 0.915698,0.2748 l 6.409883,3.6932 a 1.9021272,1.9021261 0 0 1 0.976744,1.6483 l 0,-0.4884 a 1.9436173,1.9436162 0 0 0 -0.976744,-1.6787 l -6.5625,-3.7849 a 1.9436173,1.9436162 0 0 0 -0.915697,-0.2748 1.9436173,1.9436162 0 0 0 -0.18314,0 z m 4.822674,7.5393 0,4.0596 a 1.0689895,1.0689889 0 0 1 -0.549418,0.9462 l -3.601744,2.1061 a 1.0689895,1.0689889 0 0 1 -1.068314,0 l -3.632267,-2.1061 a 1.0689895,1.0689889 0 0 1 -0.152617,-0.092 1.04617,1.0461694 0 0 0 0.396803,0.4579 L 15.420108,1041 a 1.04617,1.0461694 0 0 0 1.068314,0 l 3.540698,-2.0146 a 1.04617,1.0461694 0 0 0 0.518895,-0.9462 l 0,-4.0902 a 1.04617,1.0461694 0 0 0 -0.06105,-0.3357 z m 1.831396,8.3634 -0.213663,0.1221 2.289244,1.3124 c 0.237984,0.1382 0.362479,0.3142 0.396802,0.4884 0.08879,-0.2578 -0.04161,-0.5264 -0.396802,-0.7325 l -2.075581,-1.1904 z"
         inkscape:connector-curvature="0"
         id="path3095"
         style="opacity:0.4;fill:#000000;fill-opacity:1;stroke:none" />
      <path
         d="m 15.8245,1026.6914 a 1.9021272,1.9021261 0 0 0 -0.810747,0.2702 l -6.4259214,3.6934 a 1.9021272,1.9021261 0 0 0 -0.9608818,1.6515 l 0,7.4169 a 1.9021272,1.9021261 0 0 0 0.9608818,1.6514 l 6.4259214,3.6935 a 1.9021272,1.9021261 0 0 0 1.891749,0 l 1.441322,-0.8108 2.282104,1.3212 c 0.556168,0.323 1.455671,0.323 2.011849,0 l 1.741603,-1.0209 c 0.556178,-0.3229 0.556178,-0.8182 0,-1.141 l -2.282104,-1.3212 1.231137,-0.7208 a 1.9021272,1.9021261 0 0 0 0.960882,-1.6514 l 0,-7.4169 a 1.9021272,1.9021261 0 0 0 -0.960882,-1.6515 l -6.425911,-3.6934 a 1.9021272,1.9021261 0 0 0 -0.900832,-0.2702 1.9021272,1.9021261 0 0 0 -0.18017,0 z m 0,4.2039 a 1.04617,1.0461694 0 0 1 0.150135,0 1.04617,1.0461694 0 0 1 0.510476,0.12 l 3.543266,2.0419 a 1.04617,1.0461694 0 0 1 0.510466,0.9008 l 0,4.0838 a 1.04617,1.0461694 0 0 1 -0.510466,0.9308 l -3.543266,2.0419 a 1.04617,1.0461694 0 0 1 -1.050967,0 l -3.543266,-2.0419 a 1.04617,1.0461694 0 0 1 -0.510467,-0.9308 l 0,-4.0838 a 1.04617,1.0461694 0 0 1 0.510467,-0.9008 l 3.543266,-2.0419 a 1.04617,1.0461694 0 0 1 0.390356,-0.12 z"
         inkscape:connector-curvature="0"
         id="path3097"
         style="fill:#cccccc;fill-opacity:1;stroke:none" />
      <path
         d="m 7.8885609,1031.3514 3.6330391,2.0983 a 1.04617,1.0461694 0 0 1 0.382473,-0.3832 l 3.534115,-2.0404 a 1.04617,1.0461694 0 0 1 1.045204,0 l 3.534358,2.04 a 1.04617,1.0461694 0 0 1 0.380579,0.3816 l 3.632414,-2.0972 a 1.9021272,1.9021261 0 0 0 -0.693596,-0.6949 l -6.42724,-3.7098 a 1.9021272,1.9021261 0 0 0 -1.900041,0 l -6.4256093,3.7098 a 1.9021272,1.9021261 0 0 0 -0.6956958,0.6962 z"
         inkscape:connector-curvature="0"
         id="path3099"
         style="fill:#ffffff;fill-opacity:1;stroke:none" />
      <path
         d="m 15.958284,1045.3346 6.25e-4,-4.1957 a 1.04617,1.0461694 0 0 1 -0.523114,-0.1395 l -3.534124,-2.0403 a 1.04617,1.0461694 0 0 1 -0.522324,-0.9055 l -6.25e-4,-4.0807 a 1.04617,1.0461694 0 0 1 0.140319,-0.5204 l -3.632414,-2.0972 a 1.9021272,1.9021261 0 0 0 -0.2550768,0.9481 l 9.377e-4,7.421 a 1.9021272,1.9021261 0 0 0 0.9494246,1.6459 l 6.4256095,3.7098 a 1.9021272,1.9021261 0 0 0 0.950811,0.2545 z"
         inkscape:connector-curvature="0"
         id="path3101"
         style="opacity:0.58999999;fill:#ffffff;fill-opacity:1;stroke:none" />
    </g>
  </g>
</svg>
