<svg width="18" height="10" viewBox="0 0 18 10" fill="none" xmlns="http://www.w3.org/2000/svg">
<path fill-rule="evenodd" clip-rule="evenodd" d="M4.90909 0C7.04455 0 8.86091 1.39167 9.53182 3.33333H18V6.66667H16.3636V10H13.0909V6.66667H9.53182C8.86091 8.60833 7.04455 10 4.90909 10C2.20091 10 0 7.75833 0 5C0 2.24167 2.20091 0 4.90909 0ZM3.27273 5C3.27273 5.91667 4.00909 6.66667 4.90909 6.66667C5.80909 6.66667 6.54545 5.91667 6.54545 5C6.54545 4.08333 5.80909 3.33333 4.90909 3.33333C4.00909 3.33333 3.27273 4.08333 3.27273 5Z" fill="black"/>
</svg>
