<?xml version="1.0" encoding="UTF-8" standalone="no"?>
<svg
   xmlns:dc="http://purl.org/dc/elements/1.1/"
   xmlns:cc="http://creativecommons.org/ns#"
   xmlns:rdf="http://www.w3.org/1999/02/22-rdf-syntax-ns#"
   xmlns:svg="http://www.w3.org/2000/svg"
   xmlns="http://www.w3.org/2000/svg"
   xmlns:sodipodi="http://sodipodi.sourceforge.net/DTD/sodipodi-0.dtd"
   xmlns:inkscape="http://www.inkscape.org/namespaces/inkscape"
   inkscape:version="1.0 (4035a4fb49, 2020-05-01)"
   sodipodi:docname="ask_ico.svg"
   id="svg62"
   version="1.1"
   fill="none"
   viewBox="0 0 25 30"
   height="30"
   width="25">
  <metadata
     id="metadata68">
    <rdf:RDF>
      <cc:Work
         rdf:about="">
        <dc:format>image/svg+xml</dc:format>
        <dc:type
           rdf:resource="http://purl.org/dc/dcmitype/StillImage" />
        <dc:title />
      </cc:Work>
    </rdf:RDF>
  </metadata>
  <defs
     id="defs66" />
  <sodipodi:namedview
     inkscape:current-layer="svg62"
     inkscape:window-maximized="1"
     inkscape:window-y="138"
     inkscape:window-x="2280"
     inkscape:cy="9.1528087"
     inkscape:cx="16.989318"
     inkscape:zoom="14.460334"
     showgrid="false"
     id="namedview64"
     inkscape:window-height="1198"
     inkscape:window-width="1375"
     inkscape:pageshadow="2"
     inkscape:pageopacity="0"
     guidetolerance="10"
     gridtolerance="10"
     objecttolerance="10"
     borderopacity="1"
     bordercolor="#666666"
     pagecolor="#ffffff"
     inkscape:document-rotation="0" />
  <path
     style="fill:#4180c9;fill-opacity:1"
     sodipodi:nodetypes="ccscscc"
     id="path60"
     fill="#641311"
     d="M 12.5,0 0,4.5 v 9.135 C 0,21.21 5.32812,28.275 12.5,30 19.6719,28.275 25,21.21 25,13.635 V 4.5 Z"
     clip-rule="evenodd"
     fill-rule="evenodd" />
  <g
     style="font-size:23.9717px;line-height:1.25;font-family:'Source Sans Pro';-inkscape-font-specification:'Source Sans Pro';letter-spacing:0px;word-spacing:0px;fill:#ffffff;stroke-width:1.49823"
     id="text895"
     aria-label="?">
    <path
       id="path840"
       style="font-style:normal;font-variant:normal;font-weight:normal;font-stretch:normal;font-family:'DejaVu Sans Mono';-inkscape-font-specification:'DejaVu Sans Mono';stroke-width:1.49823"
       d="M 12.991607,19.305008 H 10.76767 v -1.802559 q 0,-1.147084 0.351148,-1.943019 0.362853,-0.80764 1.346067,-1.767445 l 1.053444,-1.041739 q 0.725706,-0.690591 0.994919,-1.205608 0.280919,-0.515017 0.280919,-1.088558 0,-1.0417394 -0.772526,-1.6855107 -0.760821,-0.6437712 -2.036658,-0.6437712 -0.912985,0 -1.954724,0.4096726 Q 8.9885203,8.9344384 7.841437,9.7303738 V 7.5298466 q 1.1002636,-0.6671812 2.212232,-0.9949193 1.123674,-0.3277381 2.340987,-0.3277381 2.177117,0 3.464659,1.1236735 1.299248,1.1236735 1.299248,3.0081673 0,0.889575 -0.397968,1.662101 -0.386263,0.76082 -1.486526,1.837674 l -1.030034,1.006624 q -0.807641,0.772526 -1.030034,1.264133 -0.222394,0.491607 -0.222394,1.205608 v 0.550131 z m -2.305872,1.720625 h 2.376102 v 2.973053 h -2.376102 z" />
  </g>
</svg>
