<svg xmlns="http://www.w3.org/2000/svg" width="43.606" height="48" fill="none"><g style="fill: rgb(0, 0, 0);"><path d="M43.606 33.396V14.605a5.159 5.159 0 0 0-2.616-4.483L24.378.68a5.215 5.215 0 0 0-5.15 0L2.615 10.122A5.159 5.159 0 0 0 0 14.605v18.79c0 1.853.998 3.564 2.616 4.483l16.611 9.442a5.216 5.216 0 0 0 5.151 0l16.612-9.442a5.158 5.158 0 0 0 2.616-4.482Z" class="fills" style="fill: rgb(163, 163, 163); fill-opacity: 1;"/><path d="M0 33.396c0 1.852.998 3.563 2.616 4.482l16.662 9.47c1.125.64 2.525-.167 2.525-1.456V26.996a5.158 5.158 0 0 0-2.616-4.483l-16.663-9.47C1.4 12.403 0 13.212 0 14.5Z" class="fills" style="fill: rgb(82, 82, 82); fill-opacity: 1;"/></g><g style="fill: rgb(0, 0, 0);"><ellipse cx="21.803" cy="24" class="fills" rx="14.438" ry="14.361" style="fill: none; stroke-linecap: round; stroke-linejoin: round; fill-opacity: 1;"/><g class="strokes" style="fill: none; stroke-linecap: round; stroke-linejoin: round; fill-opacity: 1;"><g class="outer-stroke-shape"><defs><ellipse id="a" cx="21.803" cy="24" rx="14.438" ry="14.361"/><mask id="b" width="37.362" height="37.207" x="3.122" y="5.397" maskUnits="userSpaceOnUse"><use href="#a" style="fill: none; stroke: white; stroke-width: 6;"/><use href="#a" style="fill: black; stroke: none;"/></mask></defs><use href="#a" mask="url(#b)" style="fill: none; stroke-width: 6; stroke: rgb(255, 255, 255); stroke-opacity: 1;"/><use href="#a" style="fill: none; stroke-width: 3; stroke: none; stroke-opacity: 1;"/></g></g><path d="M21.803 9.64c-7.7 8.041-7.7 20.679 0 28.72 7.7-8.041 7.7-20.679 0-28.72" class="fills" style="fill: none; stroke-linecap: round; stroke-linejoin: round;"/><g class="strokes" style="fill: none; stroke-linecap: round; stroke-linejoin: round;"><g class="outer-stroke-shape"><defs><path id="c" d="M21.803 9.64c-7.7 8.041-7.7 20.679 0 28.72 7.7-8.041 7.7-20.679 0-28.72"/><mask id="d" width="26.036" height="43.207" x="8.785" y="2.397" maskUnits="userSpaceOnUse"><use href="#c" style="fill: none; stroke: white; stroke-width: 6;"/><use href="#c" style="fill: black; stroke: none;"/></mask></defs><use href="#c" mask="url(#d)" style="fill: none; stroke-width: 6; stroke: rgb(255, 255, 255); stroke-opacity: 1;"/><use href="#c" style="fill: none; stroke-width: 3; stroke: none; stroke-opacity: 1;"/></g></g><path d="M7.365 24H36.24" class="fills" style="fill: none; stroke-linecap: round; stroke-linejoin: round;"/><g class="strokes" style="fill: none; stroke-linecap: round; stroke-linejoin: round;"><path d="M7.365 24H36.24" class="stroke-shape" style="fill: none; stroke-width: 3; stroke: rgb(255, 255, 255); stroke-opacity: 1;"/></g></g></svg>