<svg width="33" height="32" viewBox="0 0 33 32" fill="none" xmlns="http://www.w3.org/2000/svg">
<path d="M30.0419 22.4525V9.54766C30.0419 8.5907 29.5291 7.70712 28.6982 7.23234L17.3648 0.756134C16.545 0.287671 15.5385 0.287673 14.7187 0.75614L3.38538 7.23233C2.55451 7.70711 2.04175 8.5907 2.04175 9.54765V22.4525C2.04175 23.4094 2.55452 24.293 3.38539 24.7678L14.7189 31.244C15.5387 31.7124 16.5451 31.7124 17.3649 31.2439L28.6982 24.7678C29.5291 24.293 30.0419 23.4094 30.0419 22.4525Z" fill="#DC2626"/>
<path d="M30.0419 22.4525V9.54766C30.0419 8.5907 29.5291 7.70712 28.6982 7.23234L17.3648 0.756134C16.545 0.287671 15.5385 0.287673 14.7187 0.75614L3.38538 7.23233C2.55451 7.70711 2.04175 8.5907 2.04175 9.54765V22.4525C2.04175 23.4094 2.55452 24.293 3.38539 24.7678L14.7189 31.244C15.5387 31.7124 16.5451 31.7124 17.3649 31.2439L28.6982 24.7678C29.5291 24.293 30.0419 23.4094 30.0419 22.4525Z" fill="#F97316"/>
<path d="M2.04175 22.4525C2.04175 23.4094 2.55451 24.293 3.38539 24.7678L14.7451 31.259C15.3229 31.5892 16.0417 31.172 16.0417 30.5065V17.5476C16.0417 16.5906 15.529 15.7071 14.6981 15.2323L3.3384 8.74106C2.76063 8.41091 2.04175 8.82809 2.04175 9.49354V22.4525Z" fill="#FED7AA"/>
<path d="M10.6773 23.6003L7.38059 21.7164C6.96516 21.479 6.70878 21.0372 6.70878 20.5588L6.70875 16.8032C6.70874 16.4449 7.09584 16.2202 7.40695 16.398L10.7037 18.2819C11.1191 18.5193 11.3755 18.9611 11.3755 19.4396L11.3755 23.1951C11.3755 23.5534 10.9884 23.778 10.6773 23.6003Z" fill="#9A3412"/>
</svg>
