<svg width="33" height="32" viewBox="0 0 33 32" fill="none" xmlns="http://www.w3.org/2000/svg">
<path d="M29.7086 9.54753V22.4524C29.7086 23.2897 29.2599 24.0628 28.5329 24.4783L17.1995 30.9544C16.4822 31.3643 15.6016 31.3643 14.8842 30.9544L3.55077 24.4783C2.82375 24.0628 2.37508 23.2897 2.37508 22.4523V9.54753C2.37508 8.71019 2.82375 7.93706 3.55076 7.52163L14.8841 1.04543C15.6014 0.635524 16.4821 0.635521 17.1994 1.04543L28.5329 7.52163C29.2599 7.93706 29.7086 8.7102 29.7086 9.54753Z" stroke="#22C55E" stroke-width="0.666667"/>
<path d="M25.3744 20.0442V11.9569C25.3744 11.1594 24.9471 10.4231 24.2547 10.0275L17.1436 5.96399C16.4604 5.57361 15.6217 5.57361 14.9385 5.964L7.82745 10.0275C7.13506 10.4231 6.70776 11.1594 6.70776 11.9569V20.0442C6.70776 20.8417 7.13507 21.578 7.82746 21.9736L14.9386 26.0371C15.6218 26.4275 16.4605 26.4275 17.1437 26.0371L24.2547 21.9736C24.9471 21.578 25.3744 20.8417 25.3744 20.0442Z" fill="#22C55E"/>
<path d="M6.70776 20.0439C6.70776 20.8414 7.13507 21.5777 7.82745 21.9734L14.9605 26.0494C15.442 26.3245 16.0411 25.9768 16.0411 25.4223V17.2899C16.0411 16.4924 15.6137 15.7561 14.9214 15.3604L7.7883 11.2844C7.30683 11.0093 6.70776 11.357 6.70776 11.9115V20.0439Z" fill="#166534"/>
</svg>
