<?xml version="1.0" encoding="UTF-8"?>
<svg width="48px" height="48px" viewBox="0 0 48 48" version="1.1" xmlns="http://www.w3.org/2000/svg" xmlns:xlink="http://www.w3.org/1999/xlink">
    <style>
        <![CDATA[
            .mainColor {
                stroke: none;
                fill:    #B4BBC1
            }
            .outline {
                stroke: #B4BBC1;
                fill:    none
            }
            .shadow {
                fill:    #34373A;
            }
        ]]>
    </style>
    <title>Vector Perfect Standalone VM</title>
    <g id="vector-qube" stroke="none" stroke-width="1" fill="none" fill-rule="evenodd">
        <g id="Toppy-Top" transform="translate(9,8)">
            <path class="shadow" d="M14.2532486,1.03692381 L8.50924859,4.35292381 L2.76624859,7.66992381 C2.32824859,7.92292381 1.97324859,8.28192381 1.72824859,8.70392381 C1.48224859,9.12692381 1.34524859,9.61292381 1.34224859,10.1189238 L1.30324859,16.6489238 L1.2642,23.1809238 C1.26124859,23.6949238 1.39724859,24.1909238 1.64624859,24.6209238 C1.89424859,25.0519238 2.25524859,25.4179238 2.70324859,25.6719238 L8.37824859,28.9039238 L14.0532486,32.1359238 C14.4932486,32.3859238 14.9822486,32.5109238 15.4712486,32.5089474 C15.9602486,32.5079238 16.4482486,32.3799238 16.8862486,32.1279238 L22.2342486,28.9699238 L27.5822486,25.8109238 C28.0202486,25.5589238 28.3942486,25.1409238 28.6602486,24.6579238 C28.9252486,24.1759238 29.0822486,23.6309238 29.0852486,23.1249238 L29.0842486,16.5949238 L29.0842486,10.0629238 C29.0862486,9.54892381 28.9902486,8.95392381 28.7812486,8.42492381 C28.5722486,7.89492381 28.2512486,7.43092381 27.8032486,7.17592381 L22.4452486,4.10192381 L17.0862486,1.02892381 C16.6472486,0.777923809 16.1572486,0.653923809 15.6692486,0.6559 C15.1792486,0.656923809 14.6912486,0.783923809 14.2532486,1.03692381"></path>
            <g id="Clip-4"></g>
            <path class="mainColor" d="M7.24504859,4.32652381 L1.50204859,7.64352381 C1.06404859,7.89652381 0.709048594,8.25552381 0.464048594,8.67752381 C0.218048594,9.10052381 0.0810485939,9.58652381 0.0780485939,10.0925238 L0.0390485939,16.6225238 L-4.70482789e-05,23.1545238 C-0.00295140613,23.6685238 0.133048594,24.1645238 0.382048594,24.5945238 C0.630048594,25.0255238 0.991048594,25.3915238 1.43904859,25.6455238 L7.11404859,28.8775238 L12.7890486,32.1095238 C13.2290486,32.3595238 13.7180486,32.4845238 14.2070486,32.4825705 C14.6960486,32.4815238 15.1850486,32.3535238 15.6220486,32.1015238 L21.3660486,28.7845238 L27.1100486,25.4685238 C27.5480486,25.2155238 27.9020486,24.8565238 28.1480486,24.4335238 C28.3940486,24.0115238 28.5310486,23.5255238 28.5330486,23.0195238 L28.5720486,16.4885238 L28.6120916,9.95752381 C28.6140486,9.44352381 28.4780486,8.94752381 28.2300486,8.51652381 C27.9810486,8.08652381 27.6200486,7.72052381 27.1730486,7.46552381 L21.4970486,4.23452381 L15.8220486,1.00252381 C15.3830486,0.751523809 14.8930486,0.627523809 14.4050486,0.62947675 C13.9150486,0.630523809 13.4270486,0.757523809 12.9890486,1.01052381 L7.24504859,4.32652381 Z" id="Fill-3"></path>
            <path class="shadow" d="M0.418748594,8.78392381 C0.631748594,8.79692381 0.836748594,8.83392381 1.03674859,8.89392381 C1.23674859,8.95592381 1.43074859,9.04092381 1.62274859,9.14992381 L7.29874859,12.3819238 L12.9737486,15.6139238 C13.4207486,15.8679238 13.7827486,16.2339238 14.0307486,16.6649238 C14.2797486,17.0949238 14.4157486,17.5909238 14.4127972,18.1049238 L14.3737486,24.6369238 L14.3347486,31.1669238 C14.3337486,31.3989238 14.3037486,31.6269238 14.2487486,31.8459238 C14.1927486,32.0649238 14.1117486,32.2759238 14.0077486,32.4739238 L13.9247486,32.4679238 L13.8407486,32.4599238 C13.6587486,32.4369238 13.4787486,32.3959238 13.3027486,32.3379238 C13.1267486,32.2789238 12.9547486,32.2029238 12.7897486,32.1089238 L7.11374859,28.8779238 L1.43874859,25.6449238 C0.991748594,25.3909238 0.629748594,25.0249238 0.381748594,24.5949238 C0.132748594,24.1649238 -0.00225140613,23.6689238 0.000699649966,23.1539238 L0.0397485939,16.6229238 L0.0777485939,10.0929238 C0.0797485939,9.83992381 0.101748594,9.61592381 0.153748594,9.40292381 C0.206748594,9.19092381 0.288748594,8.98792381 0.411748594,8.77692381 L0.415748594,8.77992381 L0.418748594,8.78392381 Z" id="Fill-6"></path>
        </g>
    </g>
    <g id="outline">
        <polygon class="outline" points="0.2 15 24 0.2 47.8 15 47.8 34 24 48 0.2 34"></polygon>
    </g>
</svg>
