<?xml version="1.0" encoding="UTF-8"?>
<svg width="48px" height="48px" viewBox="0 0 48 48" version="1.1" xmlns="http://www.w3.org/2000/svg" xmlns:xlink="http://www.w3.org/1999/xlink">
    <title>Vector Perfect Template VM</title>
    <defs>
        <polygon id="path-1" points="0.000248593875 0.6295 28.6120703 0.6295 28.6120703 32.4825474 0.000248593875 32.4825474"></polygon>
        <polygon id="path-3" points="0.201451406 0.147076191 28.0225 0.147076191 28.0225 32 0.201451406 32"></polygon>
    </defs>
    <g id="Vector-Perfect-Template-VM" stroke="none" stroke-width="1" fill="none" fill-rule="evenodd">
        <rect id="Rectangle" x="0" y="0" width="48" height="48"></rect>
        <g id="Toppy-Top" opacity="0.35" transform="translate(0.999751, 0.370676)">
            <path d="M14.2532486,1.03692381 L8.50924859,4.35292381 L2.76624859,7.66992381 C2.32824859,7.92292381 1.97324859,8.28192381 1.72824859,8.70392381 C1.48224859,9.12692381 1.34524859,9.61292381 1.34224859,10.1189238 L1.30324859,16.6489238 L1.2642,23.1809238 C1.26124859,23.6949238 1.39724859,24.1909238 1.64624859,24.6209238 C1.89424859,25.0519238 2.25524859,25.4179238 2.70324859,25.6719238 L8.37824859,28.9039238 L14.0532486,32.1359238 C14.4932486,32.3859238 14.9822486,32.5109238 15.4712486,32.5089474 C15.9602486,32.5079238 16.4482486,32.3799238 16.8862486,32.1279238 L22.2342486,28.9699238 L27.5822486,25.8109238 C28.0202486,25.5589238 28.3942486,25.1409238 28.6602486,24.6579238 C28.9252486,24.1759238 29.0822486,23.6309238 29.0852486,23.1249238 L29.0842486,16.5949238 L29.0842486,10.0629238 C29.0862486,9.54892381 28.9902486,8.95392381 28.7812486,8.42492381 C28.5722486,7.89492381 28.2512486,7.43092381 27.8032486,7.17592381 L22.4452486,4.10192381 L17.0862486,1.02892381 C16.6472486,0.777923809 16.1572486,0.653923809 15.6692486,0.6559 C15.1792486,0.656923809 14.6912486,0.783923809 14.2532486,1.03692381" id="Shado" fill="#34373A"></path>
            <g id="Top" transform="translate(0.000249, 0.258824)"></g>
            <mask id="mask-2" fill="white">
                <use xlink:href="#path-1"></use>
            </mask>
            <g id="Clip-4"></g>
            <path d="M7.24504859,4.32652381 L1.50204859,7.64352381 C1.06404859,7.89652381 0.709048594,8.25552381 0.464048594,8.67752381 C0.218048594,9.10052381 0.0810485939,9.58652381 0.0780485939,10.0925238 L0.0390485939,16.6225238 L-4.70482789e-05,23.1545238 C-0.00295140613,23.6685238 0.133048594,24.1645238 0.382048594,24.5945238 C0.630048594,25.0255238 0.991048594,25.3915238 1.43904859,25.6455238 L7.11404859,28.8775238 L12.7890486,32.1095238 C13.2290486,32.3595238 13.7180486,32.4845238 14.2070486,32.4825705 C14.6960486,32.4815238 15.1850486,32.3535238 15.6220486,32.1015238 L21.3660486,28.7845238 L27.1100486,25.4685238 C27.5480486,25.2155238 27.9020486,24.8565238 28.1480486,24.4335238 C28.3940486,24.0115238 28.5310486,23.5255238 28.5330486,23.0195238 L28.5720486,16.4885238 L28.6120916,9.95752381 C28.6140486,9.44352381 28.4780486,8.94752381 28.2300486,8.51652381 C27.9810486,8.08652381 27.6200486,7.72052381 27.1730486,7.46552381 L21.4970486,4.23452381 L15.8220486,1.00252381 C15.3830486,0.751523809 14.8930486,0.627523809 14.4050486,0.62947675 C13.9150486,0.630523809 13.4270486,0.757523809 12.9890486,1.01052381 L7.24504859,4.32652381 Z" id="Fill-3" fill="#C4CACF" mask="url(#mask-2)"></path>
            <path d="M0.418748594,8.78392381 C0.631748594,8.79692381 0.836748594,8.83392381 1.03674859,8.89392381 C1.23674859,8.95592381 1.43074859,9.04092381 1.62274859,9.14992381 L7.29874859,12.3819238 L12.9737486,15.6139238 C13.4207486,15.8679238 13.7827486,16.2339238 14.0307486,16.6649238 C14.2797486,17.0949238 14.4157486,17.5909238 14.4127972,18.1049238 L14.3737486,24.6369238 L14.3347486,31.1669238 C14.3337486,31.3989238 14.3037486,31.6269238 14.2487486,31.8459238 C14.1927486,32.0649238 14.1117486,32.2759238 14.0077486,32.4739238 L13.9247486,32.4679238 L13.8407486,32.4599238 C13.6587486,32.4369238 13.4787486,32.3959238 13.3027486,32.3379238 C13.1267486,32.2789238 12.9547486,32.2029238 12.7897486,32.1089238 L7.11374859,28.8779238 L1.43874859,25.6449238 C0.991748594,25.3909238 0.629748594,25.0249238 0.381748594,24.5949238 C0.132748594,24.1649238 -0.00225140613,23.6689238 0.000699649966,23.1539238 L0.0397485939,16.6229238 L0.0777485939,10.0929238 C0.0797485939,9.83992381 0.101748594,9.61592381 0.153748594,9.40292381 C0.206748594,9.19092381 0.288748594,8.98792381 0.411748594,8.77692381 L0.415748594,8.77992381 L0.418748594,8.78392381 Z" id="Fill-6" fill="#34373A" mask="url(#mask-2)"></path>
        </g>
        <g id="Bottom" style="mix-blend-mode: multiply;" transform="translate(18.000000, 15.629500)">
            <g id="Shadow" transform="translate(2.000000, 0.000000)">
                <mask id="mask-4" fill="white">
                    <use xlink:href="#path-3"></use>
                </mask>
                <g id="Clip-9"></g>
                <path d="M13.1905,0.5281 L7.4465,3.8441 L1.7035,7.1611 C1.2655,7.4141 0.9105,7.7731 0.6655,8.1951 C0.4195,8.6181 0.2825,9.1041 0.2795,9.6101 L0.2405,16.1401 L0.201451406,22.6721 C0.1985,23.1861 0.3345,23.6821 0.5835,24.1121 C0.8315,24.5431 1.1925,24.9091 1.6405,25.1631 L7.3155,28.3951 L12.9905,31.6271 C13.4305,31.8771 13.9195,32.0021 14.4085,32.0001236 C14.8975,31.9991 15.3855,31.8711 15.8235,31.6191 L21.1715,28.4611 L26.5195,25.3021 C26.9575,25.0501 27.3315,24.6321 27.5975,24.1491 C27.8625,23.6671 28.0195,23.1221 28.0225,22.6161 L28.0215,16.0861 L28.0215,9.5541 C28.0235,9.0401 27.9275,8.4451 27.7185,7.9161 C27.5095,7.3861 27.1885,6.9221 26.7405,6.6671 L21.3825,3.5931 L16.0235,0.5201 C15.5845,0.2691 15.0945,0.1451 14.6065,0.147076191 C14.1165,0.1481 13.6285,0.2751 13.1905,0.5281" id="Fill-8" fill="#34373A" mask="url(#mask-4)"></path>
            </g>
            <path d="M8.1823,3.8177 L2.4393,7.1347 C2.0013,7.3877 1.6463,7.7467 1.4013,8.1687 C1.1553,8.5917 1.0183,9.0777 1.0153,9.5837 L0.9763,16.1137 L0.937204358,22.6457 C0.9343,23.1597 1.0703,23.6557 1.3193,24.0857 C1.5673,24.5167 1.9283,24.8827 2.3763,25.1367 L8.0513,28.3687 L13.7263,31.6007 C14.1663,31.8507 14.6553,31.9757 15.1443,31.9737467 C15.6333,31.9727 16.1223,31.8447 16.5593,31.5927 L22.3033,28.2757 L28.0473,24.9597 C28.4853,24.7067 28.8393,24.3477 29.0853,23.9247 C29.3313,23.5027 29.4683,23.0167 29.4703,22.5107 L29.5093,15.9797 L29.549343,9.4487 C29.5513,8.9347 29.4153,8.4387 29.1673,8.0077 C28.9183,7.5777 28.5573,7.2117 28.1103,6.9567 L22.4343,3.7257 L16.7593,0.4937 C16.3203,0.2427 15.8303,0.1187 15.3423,0.120652941 C14.8523,0.1217 14.3643,0.2487 13.9263,0.5017 L8.1823,3.8177 Z" id="Main" fill="#C4CACF"></path>
            <path d="M1.356,8.2751 C1.569,8.2881 1.774,8.3251 1.974,8.3851 C2.174,8.4471 2.368,8.5321 2.56,8.6411 L8.236,11.8731 L13.911,15.1051 C14.358,15.3591 14.72,15.7251 14.968,16.1561 C15.217,16.5861 15.353,17.0821 15.3500486,17.5961 L15.311,24.1281 L15.272,30.6581 C15.271,30.8901 15.241,31.1181 15.186,31.3371 C15.13,31.5561 15.049,31.7671 14.945,31.9651 L14.862,31.9591 L14.778,31.9511 C14.596,31.9281 14.416,31.8871 14.24,31.8291 C14.064,31.7701 13.892,31.6941 13.727,31.6001 L8.051,28.3691 L2.376,25.1361 C1.929,24.8821 1.567,24.5161 1.319,24.0861 C1.07,23.6561 0.935,23.1601 0.937951056,22.6451 L0.977,16.1141 L1.015,9.5841 C1.017,9.3311 1.039,9.1071 1.091,8.8941 C1.144,8.6821 1.226,8.4791 1.349,8.2681 L1.353,8.2711 L1.356,8.2751 Z" id="Side" fill="#34373A"></path>
        </g>
    </g>
</svg>