<svg width="33" height="32" viewBox="0 0 33 32" fill="none" xmlns="http://www.w3.org/2000/svg">
<path d="M18.0418 16.5602V10.1078C18.0418 9.62927 17.7854 9.18748 17.37 8.95009L11.7033 5.71199C11.2934 5.47776 10.7901 5.47776 10.3802 5.71199L4.71356 8.95009C4.29813 9.18748 4.04175 9.62927 4.04175 10.1077V16.5602C4.04175 17.0386 4.29813 17.4804 4.71357 17.7178L10.3803 20.9559C10.7902 21.1901 11.2934 21.1901 11.7033 20.9559L17.37 17.7178C17.7854 17.4804 18.0418 17.0386 18.0418 16.5602Z" fill="#BBF7D0"/>
<path d="M4.04175 16.5602C4.04175 17.0386 4.29813 17.4804 4.71357 17.7178L10.3934 20.9634C10.6823 21.1285 11.0417 20.9199 11.0417 20.5872V14.1077C11.0417 13.6292 10.7854 13.1875 10.3699 12.9501L4.69007 9.70445C4.40119 9.53938 4.04175 9.74797 4.04175 10.0807V16.5602Z" fill="#86EFAC"/>
<path d="M28.7078 22.5602V16.1078C28.7078 15.6293 28.4515 15.1875 28.036 14.9501L22.3693 11.712C21.9594 11.4778 21.4562 11.4778 21.0462 11.712L15.3796 14.9501C14.9641 15.1875 14.7078 15.6293 14.7078 16.1077V22.5602C14.7078 23.0386 14.9641 23.4804 15.3796 23.7178L21.0463 26.9559C21.4562 27.1901 21.9594 27.1901 22.3693 26.9559L28.036 23.7178C28.4514 23.4804 28.7078 23.0386 28.7078 22.5602Z" fill="#22C55E"/>
<path d="M14.7078 22.5602C14.7078 23.0386 14.9641 23.4804 15.3796 23.7178L21.0594 26.9634C21.3483 27.1285 21.7078 26.9199 21.7078 26.5872V20.1077C21.7078 19.6292 21.4514 19.1875 21.0359 18.9501L15.3561 15.7045C15.0672 15.5394 14.7078 15.748 14.7078 16.0807V22.5602Z" fill="#166534"/>
</svg>
