<?xml version="1.0" encoding="UTF-8"?>
<svg width="48px" height="48px" viewBox="0 0 48 48" version="1.1" xmlns="http://www.w3.org/2000/svg" xmlns:xlink="http://www.w3.org/1999/xlink">
    <title>qute-sushi-48</title>
    <defs>
        <path d="M41.4607755,10.2312497 L24.3011722,0.653817584 C23.5671776,0.252368333 22.7339946,0.0229687609 21.8809739,0.00385212992 C20.9287647,-0.0343811321 20.0162308,0.214135071 19.2028855,0.653817584 L2.04328224,10.2312497 C1.05139766,10.7665154 0.436429216,11.6458804 0,12.6208286 L15.7511271,21.3953622 C18.6275924,23.0011592 20.393147,25.9260038 20.393147,29.1184812 L20.393147,47.7571964 C21.6825969,48.1204124 23.0712353,48.1204124 24.3011722,47.4513303 L41.4607755,37.8738982 C43.0279531,36.9945331 44,35.3696195 44,33.6491227 L44,14.4751418 C44,12.7164118 43.0279531,11.1106147 41.4607755,10.2312497 Z" id="path-1"></path>
        <filter x="-1.1%" y="-1.0%" width="104.5%" height="102.1%" filterUnits="objectBoundingBox" id="filter-2">
            <feOffset dx="1" dy="0" in="SourceAlpha" result="shadowOffsetOuter1"></feOffset>
            <feColorMatrix values="0 0 0 0 0.203921569   0 0 0 0 0.215686275   0 0 0 0 0.22745098  0 0 0 1 0" type="matrix" in="shadowOffsetOuter1"></feColorMatrix>
        </filter>
    </defs>
    <g id="qute-sushi-48" stroke="none" stroke-width="1" fill="none" fill-rule="evenodd">
        <g id="Group-3" transform="translate(2.000000, 0.000000)">
            <g id="Fill-1">
                <use fill="black" fill-opacity="1" filter="url(#filter-2)" xlink:href="#path-1"></use>
                <use fill="#585858" fill-rule="evenodd" xlink:href="#path-1"></use>
            </g>
            <path d="M0,33.5451578 C0,35.3275299 1.02374169,36.992383 2.67426401,37.8933624 L20.7464387,47.7062024 C21.1433998,47.9020675 21.5612536,47.9020675 22,48 L22,28.9227421 C22,25.6517954 20.1405508,22.6354733 17.1111111,20.9902067 L0.522317189,12 C0.271604938,12.6267682 0,13.2339499 0,13.8998912 L0,33.5451578 Z" id="Fill-3" fill="#000000"></path>
        </g>
        <g id="King" transform="translate(7.236312, 11.935369)" fill="#FFFFFF">
            <polygon id="Path-3" points="4.03313402 0 0 3.94964762 3.27727282 7.64257028 3.27727282 21.8181818 31.582307 21.3853233 31.582307 7.64257028 34.9085783 3.94964762 30.8123889 0 27.0395089 3.94964762 30.0609456 7.64257028 24.3795361 13.7797019 18.4366677 7.64257028 21.3231579 4.52781098 17.5016811 0 13.4894316 3.94964762 16.2449915 7.64257028 10.3354582 13.7797019 4.74441468 7.64257028 7.84537343 4.52781098"></polygon>
        </g>
    </g>
</svg>