<?xml version="1.0" encoding="UTF-8"?>
<svg width="48px" height="48px" viewBox="0 0 48 48" version="1.1" xmlns="http://www.w3.org/2000/svg" xmlns:xlink="http://www.w3.org/1999/xlink">
    <title>qute-sushi-48</title>
    <defs>
        <path d="M37.8977195,9.80780134 C39.713011,10.8570047 40.8322767,12.7950775 40.8322767,14.8920778 L40.8322767,33.0238875 C40.8322767,35.1447973 39.7017621,37.1025602 37.865379,38.1630151 L22.2195631,47.1993847 C20.3719311,48.2668718 18.7129555,43.7952215 16.8639173,42.7277344 L6.4834486,36.8039063 C4.55707422,35.6928196 8.7943861,33.6813923 8.7943861,31.4578125 L5.4756361,17.85 L1.97055797,14.7445312 C1.97055797,13.1454103 -1.0187599,12.4545606 0.366261097,11.6542969 C0.366261097,11.6542969 1.10537505,9.49697835 2.61413396,8.6263927 L16.0959424,0.841753653 C18.0363779,-0.280584551 20.4281756,-0.280584551 22.3700172,0.841753653 L37.8977195,9.80780134 Z" id="path-1"></path>
        <filter x="-1.2%" y="-1.1%" width="104.9%" height="102.1%" filterUnits="objectBoundingBox" id="filter-2">
            <feOffset dx="1" dy="0" in="SourceAlpha" result="shadowOffsetOuter1"></feOffset>
            <feColorMatrix values="0 0 0 0 0.0509803922   0 0 0 0 0.133333333   0 0 0 0 0.462745098  0 0 0 1 0" type="matrix" in="shadowOffsetOuter1"></feColorMatrix>
        </filter>
        <path d="M1.33372086,0.205179923 C0.993315119,0.862615163 0.0013951055,1.27152543 0,3.4894663 L0,3.4894663 L0,3.99663063 L0,22.7689353 C0,23.9537637 0.31668895,25.0923548 0.887287101,26.0734505 L0.887287101,26.0734505 C1.41742719,26.9837454 2.16659885,27.7582186 3.08736848,28.3087303 L3.08736848,28.3087303 L18.4670116,37.5041542 C19.7923618,38.1933775 20.6336104,38.3898856 21.2739638,38.4 L21.2739638,38.4 L21.3799919,38.4 C21.9519851,38.3913305 22.3677266,38.2367249 22.849038,38.1774835 L22.849038,38.1774835 C23.7572516,37.424684 24,35.50584 24,34.4741724 L24,34.4741724 L24,15.8478039 C24,14.688984 23.6805208,13.5792911 23.1043423,12.6328733 L23.1043423,12.6328733 L22.875545,12.3496705 C22.3788874,11.5347397 21.6952857,10.8397368 20.8610126,10.3426868 L20.8610126,10.3426868 L5.45486252,1.12847908 C4.68615939,0.668996873 3.48776376,-0.00144258101 2.34238214,0 L2.34238214,0 C1.99779108,0 1.65599023,0.0606886615 1.33372086,0.205179923" id="path-3"></path>
        <linearGradient x1="31.7869324%" y1="67.5441102%" x2="68.0605082%" y2="32.8397332%" id="linearGradient-5">
            <stop stop-color="#67C9EB" offset="0%"></stop>
            <stop stop-color="#88E4FF" offset="100%"></stop>
        </linearGradient>
    </defs>
    <g id="qute-sushi-48" stroke="none" stroke-width="1" fill="none" fill-rule="evenodd">
        <g id="Group-9" transform="translate(3.000000, 0.000000)">
            <g id="Fill-1">
                <use fill="black" fill-opacity="1" filter="url(#filter-2)" xlink:href="#path-1"></use>
                <use fill="#4488DF" fill-rule="evenodd" xlink:href="#path-1"></use>
            </g>
            <g id="Group-6" transform="translate(0.032277, 9.600000)">
                <mask id="mask-4" fill="white">
                    <use xlink:href="#path-3"></use>
                </mask>
                <g id="Clip-5"></g>
                <path d="M1.33372086,0.205179923 C0.993315119,0.862615163 0.0013951055,1.27152543 0,3.4894663 L0,3.4894663 L0,3.99663063 L0,22.7689353 C0,23.9537637 0.31668895,25.0923548 0.887287101,26.0734505 L0.887287101,26.0734505 C1.41742719,26.9837454 2.16659885,27.7582186 3.08736848,28.3087303 L3.08736848,28.3087303 L18.4670116,37.5041542 C19.7923618,38.1933775 20.6336104,38.3898856 21.2739638,38.4 L21.2739638,38.4 L21.3799919,38.4 C21.9519851,38.3913305 22.3677266,38.2367249 22.849038,38.1774835 L22.849038,38.1774835 C23.7572516,37.424684 24,35.50584 24,34.4741724 L24,34.4741724 L24,15.8478039 C24,14.688984 23.6805208,13.5792911 23.1043423,12.6328733 L23.1043423,12.6328733 L22.875545,12.3496705 C22.3788874,11.5347397 21.6952857,10.8397368 20.8610126,10.3426868 L20.8610126,10.3426868 L5.45486252,1.12847908 C4.68615939,0.668996873 3.48776376,-0.00144258101 2.34238214,0 L2.34238214,0 C1.99779108,0 1.65599023,0.0606886615 1.33372086,0.205179923" id="Fill-4" fill="url(#linearGradient-5)" mask="url(#mask-4)"></path>
            </g>
            <path d="M16.5521879,35.9134392 C16.0899504,35.9620557 15.7634157,36.18226 14.5855582,35.6512912 L7.96792898,32.2347879 C7.55551986,32.0203032 7.21838335,31.7190713 6.98090354,31.3644566 C6.72434053,30.9812439 6.58227672,30.5379755 6.58227672,30.076595 L6.59499885,23.1568413 L6.48462047,22.1097656 C6.48568065,21.2461072 6.93095529,21.0869118 7.08468105,20.8304834 C7.7101859,20.5854942 8.48411563,20.958221 8.93257079,21.1908178 L15.6733006,25.4637437 C16.0475433,25.6572565 16.3549948,25.9279839 16.5776321,26.2454213 L16.6794092,26.3560001 C16.9380926,26.7239605 17.0822767,27.156743 17.0822767,27.6085909 L17.0684944,34.4701953 C17.0684944,34.8724734 16.9730784,35.6188802 16.56491,35.9134392" id="Fill-7" fill="#0D2377"></path>
        </g>
    </g>
</svg>