<?xml version="1.0" encoding="UTF-8" standalone="no"?>
<!-- Created with Inkscape (http://www.inkscape.org/) -->

<svg
   xmlns:dc="http://purl.org/dc/elements/1.1/"
   xmlns:cc="http://creativecommons.org/ns#"
   xmlns:rdf="http://www.w3.org/1999/02/22-rdf-syntax-ns#"
   xmlns:svg="http://www.w3.org/2000/svg"
   xmlns="http://www.w3.org/2000/svg"
   version="1.1"
   width="256"
   height="128"
   id="svg3889">
  <defs
     id="defs3891" />
  <metadata
     id="metadata3894">
    <rdf:RDF>
      <cc:Work
         rdf:about="">
        <dc:format>image/svg+xml</dc:format>
        <dc:type
           rdf:resource="http://purl.org/dc/dcmitype/StillImage" />
        <dc:title></dc:title>
      </cc:Work>
    </rdf:RDF>
  </metadata>
  <g
     id="g2999">
    <rect
       width="22.345284"
       height="31.26996"
       ry="5.9643002"
       x="-24.504488"
       y="173.84761"
       transform="matrix(0.8648017,-0.50211355,0.8648017,0.50211355,0,0)"
       id="rect5300-11"
       style="fill:#ffffff;fill-opacity:1;stroke:none" />
    <rect
       width="22.345284"
       height="31.26996"
       ry="5.9643002"
       x="-24.504488"
       y="173.84761"
       transform="matrix(0.8648017,-0.50211355,0.8648017,0.50211355,0,0)"
       id="rect5300-5-5"
       style="opacity:0.15;fill:#000000;fill-opacity:1;stroke:none" />
    <path
       d="m 127.25632,15.22331 a 9.7726914,9.7726914 0 0 0 -5.11827,1.31072 L 89.125919,35.5868 a 9.7726914,9.7726914 0 0 0 -4.889033,8.46233 l 0,38.12548 a 9.7726914,9.7726914 0 0 0 4.889033,8.4523 l 33.012131,19.0677 a 9.7726914,9.7726914 0 0 0 9.77306,0 l 33.01711,-19.0677 a 9.7726914,9.7726914 0 0 0 4.88404,-8.4523 l 0,-38.12548 A 9.7726914,9.7726914 0 0 0 164.92822,35.5868 L 131.91111,16.53403 a 9.7726914,9.7726914 0 0 0 -4.65479,-1.31072 z m -0.10466,21.5496 a 5.3749802,5.3749802 0 0 1 2.56164,0.71765 l 18.16066,10.48077 a 5.3749802,5.3749802 0 0 1 2.68622,4.65479 l 0,20.97147 a 5.3749802,5.3749802 0 0 1 -2.68622,4.64482 l -18.16066,10.4907 a 5.3749802,5.3749802 0 0 1 -5.37246,0 l -18.16066,-10.4907 a 5.3749802,5.3749802 0 0 1 -2.68622,-4.64482 l 0,-20.97147 a 5.3749802,5.3749802 0 0 1 2.68622,-4.65479 l 18.16066,-10.48077 a 5.3749802,5.3749802 0 0 1 2.81082,-0.71765 z"
       id="path5280-0-4-2"
       style="font-size:medium;font-style:normal;font-variant:normal;font-weight:normal;font-stretch:normal;text-indent:0;text-align:start;text-decoration:none;line-height:normal;letter-spacing:normal;word-spacing:normal;text-transform:none;direction:ltr;block-progression:tb;writing-mode:lr-tb;text-anchor:start;baseline-shift:baseline;color:#000000;fill:#ffffff;fill-opacity:1;fill-rule:nonzero;stroke:none;stroke-width:116.01034546;marker:none;visibility:visible;display:inline;overflow:visible;enable-background:accumulate;font-family:Sans;-inkscape-font-specification:Sans" />
    <path
       d="m 168.50155,39.17873 -18.66899,10.77479 a 5.3749802,5.3749802 0 0 1 0.72263,2.68623 l 0,20.96649 a 5.3749802,5.3749802 0 0 1 -2.68622,4.64977 l -18.15568,10.4858 a 5.3749802,5.3749802 0 0 1 -2.67625,0.7126 l 0,21.5496 a 9.7726914,9.7726914 0 0 0 4.87407,-1.3007 l 33.01711,-19.0677 a 9.7726914,9.7726914 0 0 0 4.88404,-8.4524 l 0,-38.12044 a 9.7726914,9.7726914 0 0 0 -1.31071,-4.88404 z"
       id="path5422-2-1-2-2-4-7"
       style="opacity:0.13999999;fill:#000000;fill-opacity:1;stroke:none" />
    <path
       d="m 127.01758,111.00401 0.003,-21.5552 a 5.3749802,5.3749802 0 0 1 -2.68765,-0.7173 l -18.1575,-10.4832 a 5.3749802,5.3749802 0 0 1 -2.6836,-4.65135 l -0.003,-20.96617 a 5.3749802,5.3749802 0 0 1 0.72094,-2.67403 L 85.547435,39.18197 a 9.7726914,9.7726914 0 0 0 -1.310549,4.87147 l 0.0045,38.12747 a 9.7726914,9.7726914 0 0 0 4.87795,8.4559 l 33.013284,19.0602 a 9.7726914,9.7726914 0 0 0 4.88504,1.307 z"
       id="path4639-2"
       style="opacity:0.07000002;fill:#000000;fill-opacity:1;stroke:none" />
    <rect
       width="127.23335"
       height="127.23335"
       ry="0.14666747"
       x="64.753708"
       y="0.76665443"
       id="rect3871"
       style="opacity:0.1;fill:none;stroke:none" />
  </g>
  <text
     x="95.2481"
     y="29.999321"
     id="text3124-9"
     xml:space="preserve"
     style="font-size:6.70120287px;font-style:normal;font-variant:normal;font-weight:normal;font-stretch:normal;text-align:start;line-height:125%;letter-spacing:0px;word-spacing:0px;text-anchor:start;fill:#ffffff;fill-opacity:1;stroke:none;font-family:Roboto;-inkscape-font-specification:Roboto"><tspan
       x="168.74124"
       y="29.999321"
       id="tspan3126-4"
       style="font-size:17.78179169px;font-style:normal;font-variant:normal;font-weight:200;font-stretch:normal;text-align:start;text-anchor:start;fill:#ffffff;fill-opacity:1;font-family:Roboto Th;-inkscape-font-specification:Roboto Th Ultra-Light">@@RELEASE@@</tspan></text>
</svg>
