<?xml version="1.0" encoding="UTF-8" standalone="no"?>
<!-- Created with Inkscape (http://www.inkscape.org/) -->

<svg
   xmlns:dc="http://purl.org/dc/elements/1.1/"
   xmlns:cc="http://creativecommons.org/ns#"
   xmlns:rdf="http://www.w3.org/1999/02/22-rdf-syntax-ns#"
   xmlns:svg="http://www.w3.org/2000/svg"
   xmlns="http://www.w3.org/2000/svg"
   version="1.1"
   width="256"
   height="128"
   id="svg3889">
  <defs
     id="defs3891" />
  <metadata
     id="metadata3894">
    <rdf:RDF>
      <cc:Work
         rdf:about="">
        <dc:format>image/svg+xml</dc:format>
        <dc:type
           rdf:resource="http://purl.org/dc/dcmitype/StillImage" />
        <dc:title></dc:title>
      </cc:Work>
    </rdf:RDF>
  </metadata>
  <path
     d="m 128.60975,16.531964 c -1.84065,-0.0424 -3.68594,0.4313 -5.27965,1.35317 l -32.715046,18.88132 c -1.525248,0.87999 -2.808436,2.16457 -3.689324,3.68937 -0.880889,1.52465 -1.352791,3.27672 -1.35325,5.03765 l 0,37.78222 c 0.0022,1.7592 0.47244,3.51 1.35325,5.0327 0.880809,1.5229 2.165578,2.8054 3.689324,3.6844 L 123.3301,110.88901 c 1.52495,0.8805 3.27678,1.3532 5.03764,1.3534 1.76088,0 3.51764,-0.4729 5.04259,-1.3534 l 7.07246,-4.0844 11.4878,6.6724 c 2.99105,1.7366 7.6275,1.7366 10.61855,0 l 8.92947,-5.1857 c 1.49555,-0.8685 2.32127,-2.0623 2.32127,-3.3091 0,-1.2469 -0.82572,-2.4407 -2.32127,-3.30921 l -11.04825,-6.410606 5.65995,-3.2696 c 1.52282,-0.8796 2.80451,-2.1615 3.68438,-3.6844 0.8799,-1.5227 1.35151,-3.274 1.35327,-5.0327 l 0,-37.78222 c 6e-5,-1.76045 -0.46835,-3.513 -1.34832,-5.03765 -0.87997,-1.5248 -2.16503,-2.80875 -3.68933,-3.68937 l -32.71998,-18.88132 c -1.45537,-0.8419 -3.11969,-1.31208 -4.80058,-1.35317 z m -0.0198,0.79022 c 1.54654,0.0378 3.08617,0.46986 4.42523,1.24459 l 32.71999,18.88132 c 1.40225,0.80998 2.58842,2.00021 3.39793,3.40284 0.8095,1.40264 1.24465,3.02306 1.2446,4.64254 l 0,37.78222 c -0.002,1.6179 -0.43517,3.2369 -1.2446,4.6376 -0.80943,1.4008 -1.99705,2.5887 -3.39793,3.398 l -6.24768,3.6104 -0.59266,0.3407 0.59266,0.3408 11.63597,6.751516 c 1.33623,0.7758 1.92616,1.7282 1.92616,2.6275 0,0.8992 -0.58993,1.8516 -1.92616,2.6274 l -8.92947,5.1859 c -2.6725,1.5515 -7.15584,1.5515 -9.82833,0 l -11.68536,-6.7861 -0.19755,-0.1136 -0.19756,0.1136 -7.27001,4.198 c -1.40284,0.81 -3.02759,1.2446 -4.64748,1.2447 -1.61987,0 -3.23969,-0.4347 -4.64253,-1.2447 L 91.010164,91.311294 c -1.401753,-0.8087 -2.58765,-1.9971 -3.39794,-3.398 -0.810274,-1.4009 -1.247439,-3.0192 -1.249525,-4.6376 l 0,-37.78222 c 0,-1.61995 0.434241,-3.2399 1.244594,-4.64254 0.810353,-1.40263 1.999743,-2.59334 3.402871,-3.40284 l 32.715046,-18.88132 c 1.46587,-0.8479 3.17179,-1.28363 4.86479,-1.24459 z m -0.35065,20.56543 c -0.95494,0.022 -1.89884,0.28828 -2.72625,0.76541 l -17.99722,10.38647 c -1.73889,1.00469 -2.85982,2.94546 -2.85961,4.95373 l 0,20.78271 c 0.004,2.00466 1.1238,3.94096 2.85961,4.94376 l 17.99723,10.3965 c 0.86584,0.4996 1.85995,0.7654 2.85959,0.7654 0.99964,0 1.99375,-0.2658 2.85959,-0.7654 l 17.99723,-10.3965 c 1.73581,-1.0028 2.85614,-2.9391 2.85961,-4.94376 l 0,-20.78271 c 0,-2.00827 -1.12072,-3.94904 -2.85961,-4.95373 l -17.99723,-10.38647 c -0.8274,-0.47713 -1.7713,-0.74344 -2.72625,-0.76541 -0.0884,-0.002 -0.17827,-0.002 -0.26668,0 z m 0.0198,0.79022 c 0.0762,-0.002 0.15098,-0.002 0.22717,0 0.82058,0.019 1.63993,0.24671 2.3509,0.65683 l 17.99723,10.38648 c 1.48059,0.85533 2.46468,2.5622 2.4645,4.27208 l 0,20.78271 c -0.003,1.70686 -0.98649,3.40836 -2.4645,4.26226 l -17.99723,10.3963 c -0.74378,0.4292 -1.60575,0.6569 -2.46448,0.6569 -0.85873,0 -1.7207,-0.2277 -2.46449,-0.6569 l -17.99722,-10.3963 c -1.47801,-0.8539 -2.46155,-2.5554 -2.4645,-4.26226 l 0,-20.78271 c 0,-1.70988 0.98391,-3.41675 2.4645,-4.27208 l 17.99722,-10.38648 c 0.71098,-0.41012 1.53032,-0.63786 2.3509,-0.65683 z"
     id="rect5300-6-1-1-2-4-1"
     style="font-size:medium;font-style:normal;font-variant:normal;font-weight:normal;font-stretch:normal;text-indent:0;text-align:start;text-decoration:none;line-height:normal;letter-spacing:normal;word-spacing:normal;text-transform:none;direction:ltr;block-progression:tb;writing-mode:lr-tb;text-anchor:start;baseline-shift:baseline;color:#000000;fill:#ffffff;fill-opacity:1;stroke:none;stroke-width:5;marker:none;visibility:visible;display:inline;overflow:visible;enable-background:accumulate;font-family:Sans;-inkscape-font-specification:Sans" />
  <text
     x="97.159821"
     y="29.999302"
     id="text3124-9"
     xml:space="preserve"
     style="font-size:6.70120287px;font-style:normal;font-variant:normal;font-weight:normal;font-stretch:normal;text-align:start;line-height:125%;letter-spacing:0px;word-spacing:0px;text-anchor:start;fill:#ffffff;fill-opacity:1;stroke:none;font-family:Roboto;-inkscape-font-specification:Roboto"><tspan
       x="170.65295"
       y="29.999302"
       id="tspan3126-4"
       style="font-size:17.78179169px;font-style:normal;font-variant:normal;font-weight:200;font-stretch:normal;text-align:start;text-anchor:start;fill:#ffffff;fill-opacity:1;font-family:Roboto Th;-inkscape-font-specification:Roboto Th Ultra-Light">@@RELEASE@@</tspan></text>
</svg>
